<svg width="19" height="34" viewBox="0 0 19 34" fill="none" xmlns="http://www.w3.org/2000/svg">
<path d="M6.94538 31.1023C4.94958 30.7417 3.28642 30.0205 1.95588 28.9386C0.651961 27.8311 0 26.2985 0 24.3409C0 23.2848 0.292717 22.422 0.878151 21.7523C1.4902 21.0568 2.2486 20.7091 3.15336 20.7091C3.7388 20.7091 4.23109 20.9152 4.63025 21.3273C5.05602 21.7136 5.26891 22.1515 5.26891 22.6409C5.26891 23.3106 5.13586 23.8129 4.86975 24.1477C4.63025 24.4568 4.19118 24.7917 3.55252 25.1523C3.10014 25.4098 2.80742 25.6288 2.67437 25.8091C2.54132 25.9894 2.47479 26.247 2.47479 26.5818C2.47479 27.303 2.88726 27.9599 3.71219 28.5523C4.53712 29.1189 5.61485 29.5439 6.94538 29.8273V18.3909L4.82983 17.1159C2.2486 15.5705 0.957983 13.3295 0.957983 10.3932C0.957983 8.33258 1.51681 6.69697 2.63445 5.48636C3.7521 4.27576 5.18908 3.45152 6.94538 3.01364V0.638656C6.94538 0.285936 7.23131 0 7.58403 0C7.93675 0 8.22269 0.285936 8.22269 0.638655V2.74318C8.86135 2.66591 9.47339 2.62727 10.0588 2.62727C10.4314 2.62727 10.937 2.65303 11.5756 2.70455V0.638656C11.5756 0.285936 11.8616 0 12.2143 0C12.567 0 12.8529 0.285935 12.8529 0.638655V2.89773C14.6891 3.25833 16.166 3.95379 17.2836 4.98409C18.4279 5.98864 19 7.28939 19 8.88636C19 9.96818 18.7339 10.9341 18.2017 11.7841C17.6695 12.6341 16.9776 13.0591 16.1261 13.0591C15.4342 13.0591 14.8754 12.8788 14.4496 12.5182C14.0504 12.1576 13.8508 11.6939 13.8508 11.1273C13.8508 10.6379 13.9972 10.2129 14.2899 9.85227C14.6092 9.49167 14.9818 9.20833 15.4076 9.00227C15.9664 8.7447 16.3522 8.51288 16.5651 8.30682C16.8046 8.10076 16.9244 7.81742 16.9244 7.45682C16.9244 6.78712 16.5518 6.15606 15.8067 5.56364C15.0882 4.94546 14.1036 4.48182 12.8529 4.17273V15.3386L14.4097 16.2659C15.8466 17.1417 16.951 18.1591 17.7227 19.3182C18.521 20.4773 18.9202 21.8553 18.9202 23.4523C18.9202 25.5129 18.3613 27.1742 17.2437 28.4364C16.1261 29.6985 14.6625 30.5614 12.8529 31.025V33.3613C12.8529 33.7141 12.567 34 12.2143 34C11.8616 34 11.5756 33.7141 11.5756 33.3613V31.2568C11.0168 31.3341 10.4713 31.3727 9.93908 31.3727C9.19398 31.3727 8.62185 31.347 8.22269 31.2955V33.3613C8.22269 33.7141 7.93675 34 7.58403 34C7.23131 34 6.94538 33.7141 6.94538 33.3613V31.1023ZM11.5756 3.97955C11.07 3.90227 10.5112 3.86364 9.89916 3.86364C9.23389 3.86364 8.67507 3.91515 8.22269 4.01818V12.5568L11.5756 14.5659V3.97955ZM6.94538 4.40455C6.04062 4.7394 5.32213 5.22879 4.78992 5.87273C4.2577 6.49091 3.9916 7.19924 3.9916 7.99773C3.9916 9.41439 4.97619 10.6765 6.94538 11.7841V4.40455ZM9.93908 30.1364C10.5511 30.1364 11.0966 30.0977 11.5756 30.0205V21.1727L8.22269 19.1636V30.0591C8.96779 30.1106 9.53992 30.1364 9.93908 30.1364ZM12.8529 29.7114C13.8641 29.3508 14.5959 28.8356 15.0483 28.1659C15.5007 27.4962 15.7269 26.8008 15.7269 26.0795C15.7269 25.0492 15.4475 24.225 14.8887 23.6068C14.3298 22.9629 13.6513 22.4091 12.8529 21.9455V29.7114Z" fill="white"/>
</svg>
