<svg width="586" height="525" viewBox="0 0 586 525" fill="none" xmlns="http://www.w3.org/2000/svg">
<path d="M220.756 37.3257L206.598 37.4023L206.979 107.853L221.137 107.776L220.756 37.3257Z" fill="#E0E0E0"/>
<path d="M120.605 37.5165L83.9473 37.7148L84.1577 76.6072L120.816 76.4088L120.605 37.5165Z" fill="#EBEBEB"/>
<path d="M157.094 37.3173L120.436 37.5156L120.646 76.408L157.304 76.2096L157.094 37.3173Z" fill="#F5F5F5"/>
<path d="M84.0026 48.4565C108.361 48.6629 132.792 48.4565 157.15 48.1286C157.253 48.1286 157.352 48.0877 157.425 48.0148C157.498 47.942 157.538 47.8431 157.538 47.7401C157.538 47.637 157.498 47.5382 157.425 47.4653C157.352 47.3925 157.253 47.3515 157.15 47.3515C132.784 47.2058 108.401 47.3515 84.0026 47.7887C83.9249 47.8035 83.8549 47.845 83.8045 47.906C83.7541 47.9669 83.7266 48.0435 83.7266 48.1226C83.7266 48.2017 83.7541 48.2783 83.8045 48.3392C83.8549 48.4001 83.9249 48.4416 84.0026 48.4565Z" fill="#E0E0E0"/>
<path d="M127.71 75.7607L61.0967 76.1211L61.2682 107.813L127.882 107.453L127.71 75.7607Z" fill="#EBEBEB"/>
<path d="M193.993 75.4052L127.38 75.7656L127.551 107.457L194.165 107.097L193.993 75.4052Z" fill="#F5F5F5"/>
<path d="M61.1383 84.9322C105.386 85.4422 149.78 84.9322 194.04 84.2765C194.143 84.2765 194.242 84.2356 194.314 84.1627C194.387 84.0898 194.428 83.991 194.428 83.888C194.428 83.7849 194.387 83.6861 194.314 83.6132C194.242 83.5403 194.143 83.4994 194.04 83.4994C149.792 83.2687 105.398 83.293 61.1383 84.2644C61.0607 84.2793 60.9906 84.3207 60.9402 84.3817C60.8899 84.4426 60.8623 84.5192 60.8623 84.5983C60.8623 84.6774 60.8899 84.754 60.9402 84.8149C60.9906 84.8759 61.0607 84.9173 61.1383 84.9322Z" fill="#E0E0E0"/>
<path d="M294.289 107.82H36.2217V119.174H294.289V107.82Z" fill="#E0E0E0"/>
<path d="M88.9576 113.273H78.4785V152.021H88.9576V113.273Z" fill="#E0E0E0"/>
<path d="M245.342 113.273H234.863V152.021H245.342V113.273Z" fill="#E0E0E0"/>
<path d="M234.565 11.0484L220.407 11.125L220.931 108.01L235.09 107.933L234.565 11.0484Z" fill="#EBEBEB"/>
<path d="M257.01 27.8737L235.008 28.0938L235.793 106.608L257.795 106.388L257.01 27.8737Z" fill="#F5F5F5"/>
<path d="M256.538 44.228C256.538 44.4465 251.608 44.6165 245.536 44.6165C239.465 44.6165 234.535 44.4465 234.535 44.228C234.535 44.0094 239.465 43.8516 245.536 43.8516C251.608 43.8516 256.538 44.0216 256.538 44.228Z" fill="#E0E0E0"/>
<path d="M256.538 40.9354C256.538 41.1419 251.608 41.3119 245.536 41.3119C239.465 41.3119 234.535 41.1419 234.535 40.9354C234.535 40.729 239.465 40.5469 245.536 40.5469C251.608 40.5469 256.538 40.7169 256.538 40.9354Z" fill="#E0E0E0"/>
<path d="M256.538 95.8104C256.538 96.0169 251.608 96.1869 245.536 96.1869C239.465 96.1869 234.535 96.0169 234.535 95.8104C234.535 95.604 239.465 95.4219 245.536 95.4219C251.608 95.4219 256.538 95.5919 256.538 95.8104Z" fill="#E0E0E0"/>
<path d="M256.538 92.5092C256.538 92.7157 251.608 92.8978 245.536 92.8978C239.465 92.8978 234.535 92.7157 234.535 92.5092C234.535 92.3028 239.465 92.1328 245.536 92.1328C251.608 92.1328 256.538 92.3028 256.538 92.5092Z" fill="#E0E0E0"/>
<path d="M245.888 85.3056C245.682 85.3056 245.512 77.3886 245.512 67.6259C245.512 57.8632 245.682 49.9219 245.888 49.9219C246.095 49.9219 246.277 57.851 246.277 67.6259C246.277 77.4007 246.107 85.3056 245.888 85.3056Z" fill="#E0E0E0"/>
<path d="M280.726 48.3789H256.78V107.647H280.726V48.3789Z" fill="#EBEBEB"/>
<path d="M227.275 31.6864C229.521 31.6864 231.343 29.8651 231.343 27.6186C231.343 25.372 229.521 23.5508 227.275 23.5508C225.028 23.5508 223.207 25.372 223.207 27.6186C223.207 29.8651 225.028 31.6864 227.275 31.6864Z" fill="#E0E0E0"/>
<path d="M228.537 38.8008H226.023V96.4419H228.537V38.8008Z" fill="#E0E0E0"/>
<path d="M465.318 28.2852H554.433V157.495H465.925L465.318 28.2852Z" fill="#E0E0E0"/>
<path d="M458.64 156.891H546.941V28.8949L458.64 28.8949V156.891Z" fill="white"/>
<path d="M547.549 28.2852V157.495H458.033V28.2852H547.549ZM546.335 156.281V29.4994H459.247V156.281H546.335Z" fill="#E0E0E0"/>
<path d="M535.965 42.7617H469.605V143.024H535.965V42.7617Z" fill="white"/>
<path d="M469.617 42.7608C469.617 42.7608 469.617 42.9308 469.617 43.2586C469.617 43.5865 469.617 44.06 469.617 44.6793C469.617 45.9503 469.617 47.7838 469.617 50.1799C469.617 55.037 469.617 62.0069 469.69 70.8224C469.69 88.5021 469.775 113.528 469.836 142.998L469.544 142.707H535.904L535.588 143.023C535.588 105.198 535.588 70.3246 535.661 42.7608L535.904 43.0158L487.625 42.8822L474.268 42.8094H470.771H469.556C469.556 42.8094 469.945 42.8094 470.771 42.8094H474.231H487.528L535.965 42.6758H536.22V42.9308C536.22 70.4946 536.22 105.368 536.22 143.193V143.508H535.904H469.544H469.253V143.217C469.314 113.674 469.362 88.575 469.399 70.8467C469.399 62.0312 469.459 55.0613 469.484 50.2042C469.484 47.7757 469.484 46.015 469.484 44.7522C469.484 44.1572 469.484 43.6958 469.484 43.3679C469.484 43.0401 469.617 42.7608 469.617 42.7608Z" fill="#E0E0E0"/>
<path d="M458.385 156.888C458.779 156.104 459.259 155.367 459.818 154.69C460.765 153.379 462.1 151.594 463.643 149.663C465.185 147.733 466.642 146.02 467.735 144.806C468.284 144.124 468.912 143.509 469.605 142.973C469.738 143.094 467.176 146.178 464.14 150.015C462.371 152.427 460.448 154.723 458.385 156.888Z" fill="#E0E0E0"/>
<path d="M458.688 28.8945C460.752 31.0062 462.667 33.2579 464.42 35.6337C466.322 37.8809 468.059 40.263 469.617 42.7614C467.553 40.6498 465.638 38.398 463.886 36.0223C461.983 33.7751 460.246 31.393 458.688 28.8945Z" fill="#E0E0E0"/>
<path d="M546.954 29C543.092 33.7437 539.235 38.4996 535.382 43.2676L546.954 29Z" fill="white"/>
<path d="M535.382 43.2698C537.059 40.7174 538.909 38.2831 540.919 35.9842C542.783 33.5377 544.811 31.2212 546.99 29.0508C545.31 31.6009 543.46 34.0349 541.453 36.3364C539.594 38.7866 537.565 41.1034 535.382 43.2698Z" fill="#E0E0E0"/>
<path d="M546.942 156.889C544.888 154.808 542.989 152.58 541.259 150.223C539.365 147.998 537.633 145.64 536.074 143.168C538.13 145.247 540.029 147.476 541.757 149.834C543.649 152.061 545.382 154.419 546.942 156.889Z" fill="#E0E0E0"/>
<path d="M507.065 94.3534H495.396L493.999 97.5712C493.606 98.4065 493.375 99.309 493.319 100.23C493.298 100.642 493.391 101.052 493.588 101.414C493.785 101.776 494.079 102.077 494.436 102.283C495.476 102.66 496.573 102.857 497.679 102.865V103.764H486.689V102.865C487.806 102.721 488.839 102.198 489.616 101.384C490.795 99.8705 491.748 98.1934 492.445 96.4055L504.26 70.0195H504.721L516.645 97.1341C517.297 98.9012 518.245 100.544 519.45 101.991C520.11 102.541 520.936 102.853 521.794 102.878V103.776H505.802V102.878H506.458C507.392 102.954 508.33 102.769 509.166 102.343C509.34 102.213 509.48 102.042 509.573 101.845C509.666 101.648 509.71 101.432 509.7 101.214C509.698 100.909 509.649 100.606 509.554 100.315C509.554 100.17 509.275 99.5626 508.826 98.4819L507.065 94.3534ZM506.239 92.5441L501.309 81.1665L496.246 92.5441H506.239Z" fill="#E0E0E0"/>
<path d="M0 383.422L4.52921 399.329L436.455 524.762L585.021 426.723V413.341L0 383.422Z" fill="#E0E0E0"/>
<path d="M154.952 311.453L585.021 413.342L436.455 510.289L0 383.423L154.952 311.453Z" fill="#EBEBEB"/>
<path d="M447.651 503.586C446.023 507.168 444.207 510.662 442.211 514.053C440.398 517.547 438.395 520.94 436.213 524.217C439.652 517.135 443.47 510.244 447.651 503.574V503.586Z" fill="#EBEBEB"/>
<path d="M461.846 494.344C460.217 497.926 458.402 501.42 456.406 504.811C454.592 508.305 452.589 511.698 450.407 514.975C453.846 507.893 457.665 501.002 461.846 494.332V494.344Z" fill="#EBEBEB"/>
<path d="M476.041 485.067C474.413 488.649 472.597 492.143 470.601 495.534C468.791 499.03 466.788 502.423 464.603 505.697C468.042 498.616 471.86 491.725 476.041 485.055V485.067Z" fill="#EBEBEB"/>
<path d="M490.26 475.817C488.631 479.399 486.816 482.893 484.82 486.284C483.006 489.778 481.004 493.171 478.821 496.447C482.26 489.366 486.079 482.475 490.26 475.805V475.817Z" fill="#EBEBEB"/>
<path d="M504.431 466.562C502.802 470.145 500.987 473.638 498.991 477.029C497.177 480.523 495.174 483.916 492.992 487.193C494.616 483.605 496.432 480.106 498.432 476.714C500.244 473.223 502.247 469.834 504.431 466.562Z" fill="#EBEBEB"/>
<path d="M518.625 457.297C516.997 460.879 515.181 464.373 513.185 467.764C511.375 471.26 509.372 474.653 507.187 477.928C510.626 470.846 514.444 463.955 518.625 457.285V457.297Z" fill="#EBEBEB"/>
<path d="M532.819 448.047C531.191 451.629 529.375 455.123 527.379 458.514C525.566 462.008 523.563 465.401 521.381 468.678C524.82 461.596 528.638 454.705 532.819 448.035V448.047Z" fill="#EBEBEB"/>
<path d="M547.014 438.793C545.38 442.372 543.564 445.866 541.574 449.26C539.762 452.751 537.759 456.14 535.575 459.411C537.198 455.826 539.013 452.332 541.015 448.944C542.827 445.453 544.83 442.064 547.014 438.793Z" fill="#EBEBEB"/>
<path d="M561.209 429.528C559.581 433.11 557.765 436.604 555.769 439.995C553.955 443.489 551.953 446.882 549.771 450.158C553.21 443.077 557.028 436.186 561.209 429.516V429.528Z" fill="#EBEBEB"/>
<path d="M575.403 420.277C573.775 423.859 571.959 427.353 569.963 430.744C568.15 434.242 566.147 437.639 563.965 440.92C565.588 437.332 567.404 433.833 569.405 430.441C571.216 426.945 573.219 423.553 575.403 420.277Z" fill="#EBEBEB"/>
<path d="M585.033 419.254C584.166 421.458 583.11 423.583 581.876 425.605C580.818 427.734 579.575 429.765 578.16 431.676C579.021 429.469 580.078 427.344 581.317 425.325C582.366 423.191 583.61 421.159 585.033 419.254Z" fill="#EBEBEB"/>
<path d="M432.655 523.489C431.746 522.756 430.905 521.944 430.141 521.061C428.648 519.47 426.657 517.212 424.556 514.65C422.455 512.087 420.622 509.695 419.347 507.935C418.606 507.023 417.959 506.038 417.416 504.996C418.247 505.824 419.011 506.717 419.699 507.667L425.042 514.249L430.469 520.757C431.27 521.608 432.001 522.522 432.655 523.489Z" fill="#EBEBEB"/>
<path d="M412.632 517.735C411.716 517.011 410.874 516.197 410.118 515.307C408.625 513.716 406.633 511.47 404.532 508.908C402.432 506.346 400.598 503.954 399.323 502.193C398.583 501.276 397.937 500.287 397.393 499.242C398.22 500.073 398.983 500.966 399.675 501.914L405.018 508.507C407.07 510.936 408.928 513.182 410.446 515.015C411.248 515.861 411.979 516.77 412.632 517.735Z" fill="#EBEBEB"/>
<path d="M392.608 512.036C391.692 511.312 390.85 510.498 390.095 509.608C388.601 508.017 386.61 505.771 384.509 503.209C382.408 500.646 380.575 498.254 379.3 496.494C378.557 495.579 377.91 494.59 377.369 493.543C378.201 494.37 378.964 495.264 379.652 496.214L384.995 502.808L390.422 509.316C391.221 510.164 391.952 511.074 392.608 512.036Z" fill="#EBEBEB"/>
<path d="M372.586 506.357C371.673 505.628 370.832 504.815 370.072 503.928C368.579 502.337 366.587 500.079 364.487 497.517C362.386 494.955 360.552 492.562 359.277 490.802C358.536 489.89 357.89 488.905 357.347 487.863C358.182 488.687 358.946 489.581 359.63 490.535L364.972 497.116L370.4 503.624C371.205 504.471 371.936 505.385 372.586 506.357Z" fill="#EBEBEB"/>
<path d="M352.562 500.657C351.646 499.933 350.804 499.119 350.049 498.229C348.555 496.638 346.564 494.392 344.463 491.83C342.362 489.268 340.529 486.875 339.254 485.115C338.514 484.198 337.867 483.209 337.323 482.164C338.155 482.991 338.918 483.885 339.606 484.835L344.949 491.429C347.001 493.857 348.859 496.104 350.377 497.937C351.183 498.779 351.914 499.689 352.562 500.657Z" fill="#EBEBEB"/>
<path d="M332.539 494.966C331.623 494.241 330.781 493.428 330.025 492.537C328.532 490.947 326.54 488.7 324.44 486.138C322.339 483.576 320.505 481.184 319.23 479.423C318.487 478.509 317.84 477.52 317.3 476.473C318.133 477.303 318.897 478.2 319.583 479.156L324.925 485.738L330.353 492.246C331.156 493.09 331.887 494 332.539 494.966Z" fill="#EBEBEB"/>
<path d="M312.515 489.282C311.599 488.558 310.757 487.744 310.002 486.854C308.508 485.263 306.517 483.017 304.416 480.442C302.316 477.868 300.482 475.488 299.207 473.728C298.466 472.816 297.819 471.831 297.276 470.789C298.112 471.613 298.876 472.507 299.559 473.46L304.902 480.042L310.33 486.55C311.135 487.397 311.866 488.311 312.515 489.282Z" fill="#EBEBEB"/>
<path d="M292.492 482.458C291.576 481.734 290.734 480.92 289.978 480.03C288.497 478.439 286.493 476.192 284.393 473.63C282.292 471.068 280.459 468.676 279.184 466.915C278.441 466.001 277.794 465.012 277.253 463.965C278.085 464.792 278.848 465.686 279.536 466.636L284.879 473.23L290.306 479.738C291.109 480.582 291.84 481.492 292.492 482.458Z" fill="#EBEBEB"/>
<path d="M270.21 476.263C269.288 475.541 268.442 474.727 267.684 473.834C266.203 472.244 264.212 469.997 262.099 467.435C259.986 464.873 258.165 462.481 256.902 460.72C256.167 459.797 255.516 458.81 254.959 457.77C255.797 458.594 256.565 459.488 257.254 460.441L262.585 467.034C264.649 469.463 266.507 471.721 268.024 473.543C268.826 474.388 269.557 475.298 270.21 476.263Z" fill="#EBEBEB"/>
<path d="M247.917 470.06C247.001 469.335 246.159 468.522 245.403 467.631C243.91 466.04 241.918 463.794 239.818 461.232C237.717 458.67 235.883 456.278 234.608 454.505C233.867 453.593 233.221 452.609 232.678 451.566C233.513 452.39 234.277 453.284 234.961 454.238C236.454 456.083 238.288 458.33 240.303 460.831L245.731 467.328C246.536 468.174 247.268 469.088 247.917 470.06Z" fill="#EBEBEB"/>
<path d="M225.55 462.873C224.634 462.149 223.792 461.335 223.037 460.445C221.555 458.854 219.552 456.608 217.451 454.046C215.35 451.484 213.408 449.055 212.193 447.294C211.453 446.377 210.807 445.389 210.263 444.344C211.094 445.171 211.858 446.064 212.546 447.015L217.888 453.609L223.316 460.117C224.138 460.971 224.885 461.893 225.55 462.873Z" fill="#EBEBEB"/>
<path d="M203.062 456.595C202.146 455.87 201.304 455.057 200.549 454.166C199.067 452.576 197.064 450.329 194.963 447.767C192.862 445.205 191.029 442.813 189.754 441.052C189.014 440.135 188.367 439.147 187.823 438.102C188.655 438.929 189.418 439.822 190.106 440.773C191.612 442.619 193.433 444.877 195.449 447.366L200.889 453.875C201.691 454.717 202.418 455.627 203.062 456.595Z" fill="#EBEBEB"/>
<path d="M180.5 450.001C179.584 449.277 178.742 448.463 177.987 447.573C176.493 445.982 174.502 443.735 172.389 441.173C170.276 438.611 168.467 436.219 167.192 434.446C166.456 433.528 165.805 432.545 165.249 431.508C166.091 432.329 166.859 433.223 167.544 434.179L172.887 440.773L178.315 447.269C179.115 448.12 179.846 449.033 180.5 450.001Z" fill="#EBEBEB"/>
<path d="M158.765 443.892C157.849 443.167 157.007 442.354 156.252 441.463C154.758 439.872 152.767 437.626 150.666 435.064C148.566 432.502 146.732 430.11 145.457 428.337C144.716 427.425 144.069 426.441 143.526 425.398C144.358 426.226 145.121 427.12 145.809 428.07C147.303 429.916 149.136 432.162 151.152 434.663L156.58 441.16C157.38 442.01 158.111 442.924 158.765 443.892Z" fill="#EBEBEB"/>
<path d="M136.47 438.064C135.554 437.339 134.713 436.526 133.957 435.635C132.476 434.044 130.484 431.798 128.371 429.236C126.259 426.674 124.437 424.282 123.162 422.509C122.427 421.593 121.78 420.609 121.231 419.57C122.07 420.395 122.837 421.289 123.526 422.242L128.857 428.835L134.297 435.344C135.102 436.183 135.83 437.093 136.47 438.064Z" fill="#EBEBEB"/>
<path d="M116.885 431.53C115.969 430.806 115.127 429.992 114.371 429.102C112.89 427.511 110.898 425.265 108.786 422.702C106.673 420.14 104.851 417.748 103.576 415.975C102.855 415.042 102.225 414.042 101.694 412.988C102.536 413.81 103.304 414.704 103.989 415.66L109.32 422.253L114.76 428.749C115.55 429.611 116.261 430.542 116.885 431.53Z" fill="#EBEBEB"/>
<path d="M97.2996 424.997C96.3869 424.269 95.5453 423.456 94.786 422.569C93.3046 420.978 91.3132 418.732 89.2004 416.157C87.0876 413.583 85.2662 411.203 83.9912 409.442C83.2556 408.527 82.6091 407.543 82.0605 406.504C82.9026 407.325 83.6705 408.219 84.3555 409.175L89.6861 415.757L95.126 422.265C95.9302 423.109 96.6576 424.024 97.2996 424.997Z" fill="#EBEBEB"/>
<path d="M79.5466 420.142C78.6306 419.417 77.7887 418.604 77.0331 417.713C75.5396 416.122 73.5482 413.876 71.4475 411.314C69.3468 408.752 67.5133 406.36 66.2383 404.587C65.4973 403.675 64.8505 402.691 64.3076 401.648C65.139 402.476 65.9024 403.37 66.5904 404.32L71.9332 410.901L77.4095 417.373C78.195 418.237 78.9096 419.163 79.5466 420.142Z" fill="#EBEBEB"/>
<path d="M59.1951 414.583C58.2791 413.859 57.4371 413.045 56.6816 412.155C55.188 410.564 53.1966 408.318 51.0959 405.743C48.9953 403.169 47.1617 400.789 45.8867 399.028C45.1457 398.116 44.4989 397.132 43.9561 396.09C44.7915 396.914 45.5552 397.808 46.2389 398.761L51.5816 405.343L57.0094 411.778C57.818 412.648 58.5493 413.586 59.1951 414.583Z" fill="#EBEBEB"/>
<path d="M40.6779 409.204C39.7624 408.475 38.9168 407.662 38.1523 406.776C36.6708 405.197 34.6795 402.939 32.5666 400.376C30.4538 397.814 28.6324 395.422 27.3696 393.662C26.6279 392.743 25.9772 391.755 25.4268 390.711C26.2666 391.539 27.0344 392.436 27.7217 393.394L33.0523 399.976L38.553 406.436C39.3342 407.3 40.0448 408.226 40.6779 409.204Z" fill="#EBEBEB"/>
<path d="M19.7434 402.669C18.8337 401.937 17.9924 401.124 17.2298 400.241C15.7363 398.65 13.7449 396.403 11.6321 393.841C9.51925 391.279 7.70999 388.887 6.43501 387.126C5.69673 386.206 5.04628 385.218 4.49219 384.176C5.33203 385.003 6.09979 385.901 6.78715 386.859L12.1299 393.441L17.5577 399.949C18.3578 400.796 19.0887 401.705 19.7434 402.669Z" fill="#EBEBEB"/>
<path d="M89.0176 393.324C87.0719 392.502 85.3894 391.161 84.1536 389.448C82.9178 387.734 82.1762 385.715 82.0096 383.609C81.843 381.503 82.2578 379.392 83.2088 377.506C84.1598 375.62 85.6105 374.031 87.4026 372.912C93.2626 369.399 99.8693 367.319 106.685 366.841C114.045 366.157 121.45 367.509 128.093 370.751C136.459 374.831 136.665 388.103 127.218 392.741C113.655 399.335 102.192 398.971 89.0176 393.324Z" fill="#263238"/>
<path d="M103.031 230.194L104.245 230.06L108.216 229.684H108.301V229.769C108.665 245.688 109.588 303.159 110.571 371.534C110.571 371.68 110.571 371.825 110.571 371.947V372.25H110.28L105.824 372.615H105.496V372.287L103.638 271.503C103.419 258.705 103.249 248.359 103.128 241.146C103.128 237.601 103.043 234.844 103.019 232.95C103.019 232.039 103.019 231.335 103.019 230.837C103.019 230.339 103.019 230.121 103.019 230.121C103.019 230.121 103.019 230.388 103.019 230.874C103.019 231.359 103.019 232.088 103.091 233.035C103.091 234.941 103.201 237.722 103.298 241.304C103.456 248.48 103.699 258.85 103.99 271.661C104.585 297.391 105.338 332.848 106.151 372.323L105.811 372.008L110.256 371.643L109.964 371.959V371.546C108.981 303.171 108.264 245.688 108.167 229.769L108.252 229.841L104.318 230.121L103.031 230.194Z" fill="#263238"/>
<path d="M94.4082 243.643L95.0396 243.206L96.9946 241.895L104.572 236.916L132.5 218.459L225.476 157.26L225.755 157.078L225.925 157.357L228.742 161.899L229.034 162.372L229.192 162.639L228.937 162.809C164.678 204.325 110.849 238.968 96.9096 247.808L96.8367 247.844V247.784L95.0275 244.651C94.6389 243.983 94.4811 243.655 94.4811 243.655C94.4811 243.655 94.6996 243.995 95.1003 244.663C95.501 245.331 96.1325 246.339 96.9582 247.711H96.861C110.655 238.628 164.374 203.803 228.621 162.287L228.524 162.724C228.436 162.561 228.338 162.403 228.232 162.251C227.273 160.684 226.314 159.142 225.415 157.697L225.865 157.795L132.9 218.617L104.802 236.916L97.1524 241.895L95.1489 243.182C94.6875 243.51 94.4082 243.643 94.4082 243.643Z" fill="#263238"/>
<path d="M111.895 240.474C111.94 241.814 111.587 243.137 110.88 244.275C110.173 245.414 109.144 246.317 107.923 246.871C106.703 247.425 105.346 247.605 104.023 247.387C102.701 247.169 101.472 246.565 100.494 245.649C99.5151 244.733 98.83 243.548 98.5252 242.242C98.2204 240.937 98.3095 239.571 98.7813 238.316C99.2531 237.062 100.086 235.976 101.176 235.195C102.265 234.414 103.561 233.973 104.901 233.929C106.696 233.87 108.441 234.527 109.753 235.754C111.064 236.981 111.835 238.679 111.895 240.474Z" fill="#263238"/>
<path d="M220.571 168.144C220.571 168.144 204.337 177.36 215.581 216.156C215.581 216.156 259.938 215.597 276.525 190.268C276.525 190.268 260.739 157.276 240.764 160.531L220.571 168.144Z" fill="#6D41A1"/>
<path d="M221.081 161.257L217.524 151.92C217.148 150.937 216.983 149.887 217.04 148.837C217.097 147.787 217.375 146.76 217.855 145.825C218.335 144.889 219.006 144.065 219.826 143.405C220.645 142.746 221.594 142.267 222.611 141.999C224.396 141.524 226.292 141.723 227.939 142.558C229.586 143.394 230.866 144.807 231.536 146.528L235.519 156.801L221.081 161.257Z" fill="#6D41A1"/>
<path d="M220.571 168.141L220.851 160.673L234.742 154.809L240.765 160.528L220.571 168.141Z" fill="#263238"/>
<path d="M132.901 375.125C132.933 375.346 132.933 375.571 132.901 375.793C132.864 376.437 132.783 377.078 132.658 377.711C132.177 380.049 131.168 382.246 129.708 384.135C127.49 386.903 124.596 389.052 121.305 390.376C117.3 391.981 113.039 392.849 108.725 392.938C106.442 393.035 104.208 392.938 102.059 392.878C99.989 392.785 97.928 392.55 95.8905 392.173C92.375 391.627 89.0912 390.08 86.4314 387.717C84.6472 386.095 83.3802 383.983 82.7886 381.646C82.6522 381.015 82.579 380.372 82.57 379.727C82.5496 379.505 82.5496 379.281 82.57 379.059C82.6582 379.908 82.796 380.752 82.9829 381.585C83.6273 383.82 84.8901 385.828 86.6257 387.377C89.2566 389.624 92.4676 391.085 95.8905 391.59C97.8972 391.945 99.9256 392.164 101.962 392.246C104.087 392.355 106.309 392.392 108.555 392.246C112.795 392.174 116.988 391.352 120.941 389.818C124.166 388.56 127.016 386.499 129.222 383.831C130.68 382.009 131.724 379.892 132.282 377.626C132.792 376.048 132.828 375.125 132.901 375.125Z" fill="#455A64"/>
<path d="M269.676 182.277C269.554 182.452 269.411 182.611 269.251 182.751L267.964 183.965C267.405 184.512 266.749 185.179 265.851 185.884C264.952 186.588 264.066 187.45 262.937 188.312C261.807 189.174 260.629 190.109 259.294 191.044C257.958 191.979 256.465 192.939 254.91 193.934C251.467 196.007 247.898 197.865 244.225 199.496C240.525 201.074 236.729 202.416 232.859 203.515C231.062 203.976 229.374 204.45 227.747 204.729C226.12 205.008 224.627 205.336 223.242 205.555C221.858 205.773 220.607 205.919 219.502 206.041C218.397 206.162 217.438 206.247 216.661 206.283L214.864 206.368C214.654 206.397 214.442 206.397 214.232 206.368C214.432 206.301 214.641 206.264 214.852 206.259L216.637 206.053C217.414 205.98 218.361 205.883 219.454 205.701C220.547 205.518 221.809 205.409 223.169 205.13C224.529 204.851 226.047 204.62 227.638 204.231C229.229 203.843 230.929 203.418 232.701 202.944C240.371 200.738 247.719 197.537 254.558 193.424C256.112 192.441 257.618 191.542 258.954 190.595C260.29 189.648 261.54 188.786 262.597 187.948C263.653 187.11 264.685 186.309 265.547 185.617C266.409 184.924 267.15 184.317 267.733 183.795L269.093 182.581C269.272 182.453 269.468 182.35 269.676 182.277Z" fill="white"/>
<path d="M368.032 489.96C372.013 489.909 375.925 488.91 379.443 487.045C382.961 485.181 385.984 482.504 388.262 479.238C390.314 476.251 391.904 472.632 395.037 470.884C400.173 468.067 406.293 471.503 411.551 474.065C422.358 479.323 435.679 480.853 446.255 475.146C451.719 472.195 456.224 467.484 462.04 465.432C467.359 463.538 473.199 464.048 478.821 464.63C484.443 465.213 490.235 465.845 495.639 464.181C501.042 462.518 505.96 457.903 506.094 452.257C506.203 447.036 502.184 442.434 497.4 440.345C492.615 438.257 487.224 438.232 482.027 438.475C452.97 439.847 424.447 449.003 395.389 447.716C389.719 447.461 383.562 446.914 378.79 449.998C372.549 454.006 371.165 462.433 370.946 469.852C370.728 477.271 370.813 485.419 366.028 491.089" fill="#E0E0E0"/>
<path d="M366.769 420.711C365.758 422.437 364.857 424.226 364.073 426.066C362.932 429.903 358.743 443.552 364.073 450.68C370.145 458.73 404.144 458.512 406.876 458.475H407.216L456.686 454.978C457.207 454.945 457.721 454.843 458.215 454.674L500.654 440.103C501.683 439.748 502.597 439.123 503.301 438.294C503.813 437.679 504.198 436.968 504.434 436.204C504.67 435.439 504.753 434.635 504.677 433.838C504.602 433.042 504.369 432.268 503.993 431.561C503.618 430.855 503.106 430.229 502.488 429.721L470.722 403.991C470.07 403.455 469.307 403.069 468.488 402.862C448.347 397.876 427.387 397.148 406.949 400.725C386.902 404.404 376.823 407.294 366.769 420.711Z" fill="#A8A8A8"/>
<path d="M498.99 439.153C497.773 440.029 496.937 441.336 496.653 442.808C496.369 444.28 496.657 445.804 497.46 447.07C499.451 449.96 503.908 450.324 506.895 448.491C509.882 446.657 511.57 443.221 512.262 439.772C512.735 437.344 512.675 434.502 510.853 432.839C509.5 431.82 507.87 431.236 506.178 431.163C501.452 430.532 496.691 430.204 491.923 430.18" fill="#A8A8A8"/>
<g opacity="0.3">
<path d="M483.69 431.616C486.993 432.83 494.06 434.967 497.557 435.077C499.311 435.206 501.071 434.94 502.708 434.3C504.345 433.659 505.817 432.659 507.016 431.373C507.346 430.883 507.757 430.452 508.231 430.098C508.466 429.918 508.754 429.82 509.05 429.82C509.347 429.82 509.635 429.918 509.87 430.098C510.416 430.62 510.161 431.531 509.87 432.211C508.84 434.132 507.325 435.75 505.476 436.905C503.627 438.059 501.508 438.71 499.33 438.792C494.983 438.902 485.973 435.356 483.751 431.604" fill="black"/>
</g>
<path d="M484.345 391.519C484.345 391.519 464.334 394.361 469.859 416.169C475.384 437.977 497.52 437.006 501.43 436.435C502.701 436.178 503.915 435.693 505.012 435.002C507.966 433.235 510.463 430.799 512.304 427.891C514.145 424.983 515.279 421.683 515.613 418.257L515.734 417.201L527.379 406.272C527.379 406.272 524.015 404.439 512.079 405.799L497.508 394.591C497.508 394.591 499.196 381.004 497.423 380.02C495.65 379.037 484.345 391.519 484.345 391.519Z" fill="#A8A8A8"/>
<path d="M363.77 429.074C360.127 435.449 361.499 443.354 362.859 450.555C364.219 457.755 365.372 465.733 361.523 471.962C360.067 474.259 358.027 476.128 355.612 477.378C353.197 478.628 350.494 479.214 347.778 479.078C343.139 478.786 338.95 476.406 334.639 474.682C330.329 472.958 325.229 471.926 321.197 474.233C316.899 476.661 315.248 482.441 316.607 487.201C317.967 491.961 321.817 495.701 326.152 498.044C335.271 502.999 346.794 502.513 356.035 497.668C365.275 492.823 371.978 484.008 375.281 474.172C378.584 464.336 378.62 453.59 376.434 443.451" fill="#A8A8A8"/>
<path d="M492.166 412.656L492.591 418.643L497.448 416.712C497.448 416.712 495.687 413.045 492.166 412.656Z" fill="#263238"/>
<g opacity="0.3">
<path d="M429.134 457.223C430.772 456.573 432.203 455.489 433.272 454.088C434.342 452.687 435.01 451.022 435.205 449.27C435.551 445.726 434.573 442.179 432.461 439.313C430.119 436.074 426.834 433.636 423.055 432.332C419.276 431.028 415.187 430.922 411.345 432.027C409.912 432.477 408.37 433.242 408.03 434.723C407.929 435.319 407.989 435.931 408.202 436.496C408.416 437.061 408.775 437.56 409.244 437.941C410.194 438.691 411.244 439.304 412.365 439.762C416.18 441.677 419.524 444.412 422.159 447.771C424.793 451.13 426.653 455.029 427.604 459.19" fill="black"/>
</g>
<path d="M402.457 430.276C406.217 429.636 410.077 429.917 413.705 431.097C417.332 432.276 420.619 434.319 423.284 437.049C425.948 439.779 427.91 443.115 429.001 446.77C430.092 450.425 430.279 454.291 429.547 458.035C432.619 458.994 435.934 458.265 439.091 457.682C442.248 457.1 445.721 456.711 448.55 458.241C451.379 459.771 452.909 463.984 450.687 466.304C449.417 467.37 447.848 468.019 446.195 468.161C437.258 469.849 427.981 471.537 419.165 469.376C413.907 468.076 409.099 465.454 404.351 462.867C399.081 460.002 399.555 461.058 394.297 458.192" fill="#A8A8A8"/>
<g opacity="0.3">
<path d="M488 443.56L483.143 442.345C480.841 441.918 478.615 441.153 476.537 440.075C475.5 439.53 474.591 438.769 473.872 437.843C473.154 436.917 472.642 435.848 472.372 434.708C472.032 432.777 472.955 430.458 474.801 429.96C476.306 429.559 477.824 430.385 479.16 431.174C482.948 433.409 486.729 435.651 490.501 437.901C491.382 438.304 492.114 438.976 492.59 439.82C492.803 440.431 492.813 441.094 492.618 441.712C492.424 442.329 492.035 442.866 491.509 443.244C490.439 443.976 489.162 444.346 487.866 444.3" fill="black"/>
</g>
<path d="M452.217 437.357C452.437 439.977 453.219 442.518 454.51 444.808C455.801 447.099 457.57 449.084 459.697 450.629C464.003 453.709 469.18 455.334 474.474 455.267C479.72 455.267 485.123 454.053 490.126 455.583C493.368 456.603 496.197 458.764 499.355 459.882C502.512 460.999 506.762 460.683 508.534 457.793C510.174 455.134 508.911 451.467 506.555 449.427C504.199 447.387 501.055 446.561 498.055 445.784L484.188 442.323C481.292 441.798 478.533 440.691 476.077 439.069C473.758 437.284 472.179 434.212 473.066 431.383" fill="#A8A8A8"/>
<path d="M498.103 422.252C497.305 422.612 496.404 422.672 495.565 422.422C494.611 422.241 493.739 421.76 493.076 421.05C492.659 420.584 492.437 419.975 492.457 419.35C492.471 418.999 492.583 418.66 492.78 418.37C492.978 418.08 493.253 417.852 493.574 417.711L493.829 418.281C493.708 418.281 493.586 418.403 493.441 418.451C492.261 418.897 490.955 418.866 489.798 418.366C488.864 417.951 488.098 417.232 487.624 416.326C487.379 415.939 487.218 415.504 487.151 415.05C487.084 414.596 487.113 414.133 487.236 413.691C487.355 414.539 487.618 415.361 488.013 416.12C488.484 416.89 489.184 417.493 490.016 417.844C491.039 418.246 492.175 418.246 493.198 417.844L493.538 417.711L493.781 418.281C493.572 418.383 493.395 418.539 493.269 418.734C493.142 418.929 493.072 419.154 493.064 419.386C493.04 419.854 493.201 420.312 493.513 420.661C494.085 421.306 494.832 421.77 495.663 421.997C496.465 422.167 497.283 422.252 498.103 422.252Z" fill="#263238"/>
<path d="M508.607 421.487C508.607 421.56 508.206 421.839 507.393 422.021C506.337 422.254 505.237 422.178 504.223 421.802C503.207 421.419 502.334 420.733 501.722 419.835C501.273 419.143 501.2 418.621 501.261 418.621C501.321 418.621 501.589 419.022 502.086 419.58C502.725 420.315 503.534 420.882 504.442 421.232C505.797 421.606 507.216 421.693 508.607 421.487Z" fill="#263238"/>
<path d="M470.091 393.816C470.091 393.816 474.013 398.176 478.736 403.652C483.46 409.128 487.236 413.609 487.236 413.657C487.236 413.706 483.314 409.298 478.59 403.822C473.867 398.346 470.03 393.865 470.091 393.816Z" fill="#263238"/>
<path d="M475.506 387.258C475.506 387.258 478.274 392.698 481.577 399.485C484.88 406.273 487.442 411.81 487.381 411.835C487.321 411.859 484.613 406.395 481.31 399.595C478.007 392.795 475.445 387.282 475.506 387.258Z" fill="#263238"/>
<path d="M450.637 466.63C450.551 466.135 450.4 465.653 450.188 465.198C449.579 464.143 448.602 463.352 447.444 462.975C446.264 462.624 445.027 462.501 443.801 462.611C442.866 462.611 442.283 462.733 442.271 462.696C442.259 462.66 442.417 462.635 442.672 462.587C442.927 462.538 443.315 462.478 443.789 462.429C445.031 462.262 446.294 462.366 447.492 462.733C448.099 462.932 448.659 463.25 449.143 463.667C449.626 464.083 450.023 464.591 450.31 465.161C450.477 465.505 450.584 465.874 450.625 466.254C450.646 466.378 450.65 466.505 450.637 466.63Z" fill="#263238"/>
<path d="M451.172 462.374C451.172 462.374 450.99 461.852 450.517 461.159C449.903 460.215 448.992 459.501 447.929 459.13C446.865 458.758 445.708 458.75 444.64 459.107C443.826 459.374 443.425 459.714 443.353 459.678C443.441 459.579 443.543 459.493 443.656 459.423C443.944 459.225 444.253 459.062 444.579 458.937C445.69 458.542 446.904 458.542 448.015 458.937C449.124 459.331 450.06 460.1 450.662 461.111C450.846 461.412 450.993 461.734 451.1 462.07C451.14 462.167 451.165 462.269 451.172 462.374Z" fill="#263238"/>
<path d="M378.037 431.93C377.249 432.865 376.681 433.964 376.373 435.147C376.054 436.433 375.96 437.764 376.094 439.082C376.288 440.693 376.634 442.283 377.126 443.829C377.612 445.493 378.098 447.084 378.341 448.565C378.615 449.882 378.701 451.231 378.596 452.572C378.521 453.474 378.308 454.358 377.964 455.195C377.841 455.502 377.686 455.795 377.503 456.069C377.503 456.069 377.648 455.754 377.867 455.159C378.174 454.323 378.358 453.448 378.413 452.56C378.494 451.237 378.392 449.909 378.11 448.614C377.831 447.144 377.333 445.566 376.896 443.902C376.394 442.322 376.052 440.694 375.876 439.045C375.753 437.704 375.868 436.352 376.216 435.05C376.465 434.172 376.876 433.348 377.43 432.622C377.606 432.369 377.81 432.137 378.037 431.93Z" fill="#263238"/>
<path d="M455.338 430.445C455.349 430.534 455.349 430.624 455.338 430.712C455.338 430.943 455.277 431.186 455.241 431.441C455.126 432.335 455.065 433.235 455.059 434.137C455.047 435.478 455.144 436.818 455.35 438.144C455.609 439.756 456.016 441.341 456.564 442.879C457.155 444.405 457.887 445.873 458.75 447.263C459.468 448.394 460.28 449.463 461.178 450.456C461.777 451.132 462.417 451.769 463.097 452.363L463.656 452.848L463.838 453.043C462.825 452.332 461.889 451.518 461.045 450.614C460.122 449.63 459.289 448.566 458.556 447.433C457.674 446.029 456.926 444.545 456.321 443.001C455.766 441.448 455.36 439.846 455.107 438.217C454.907 436.879 454.83 435.525 454.876 434.173C454.892 432.917 455.047 431.667 455.338 430.445Z" fill="#263238"/>
<path d="M494.959 445.179C494.959 445.179 494.594 445.034 493.914 444.791C492.962 444.442 491.989 444.154 491 443.929C488.511 443.273 484.929 442.969 481.165 441.719C479.388 441.146 477.738 440.235 476.308 439.035C475.156 438.02 474.261 436.747 473.697 435.32C473.312 434.364 473.138 433.337 473.187 432.308C473.201 431.933 473.266 431.561 473.381 431.203C473.16 432.574 473.329 433.979 473.867 435.259C474.44 436.657 475.33 437.904 476.465 438.902C477.877 440.077 479.501 440.971 481.25 441.537C484.977 442.751 488.535 443.103 491.049 443.807C492.041 444.049 493.015 444.361 493.963 444.742C494.304 444.866 494.637 445.012 494.959 445.179Z" fill="#263238"/>
<path d="M507.259 459.666C507.259 459.666 506.98 459.217 506.47 458.561C505.132 456.825 503.258 455.578 501.139 455.015C500.338 454.797 499.815 454.736 499.815 454.7C499.815 454.663 499.949 454.7 500.192 454.7C500.527 454.725 500.859 454.774 501.188 454.845C502.274 455.09 503.307 455.53 504.235 456.145C505.183 456.76 506.006 457.546 506.664 458.464C506.856 458.738 507.027 459.026 507.174 459.326C507.186 459.533 507.259 459.654 507.259 459.666Z" fill="#263238"/>
<path d="M509.822 455.934C509.822 455.934 509.64 455.46 509.215 454.78C508.671 453.894 507.884 453.182 506.948 452.73C506.011 452.278 504.965 452.105 503.933 452.23C503.131 452.315 502.718 452.522 502.646 452.473C502.74 452.398 502.847 452.341 502.961 452.303C503.268 452.188 503.585 452.102 503.908 452.048C504.978 451.87 506.076 452.027 507.053 452.497C508.034 452.974 508.844 453.742 509.373 454.695C509.531 454.976 509.657 455.273 509.749 455.581C509.791 455.695 509.815 455.813 509.822 455.934Z" fill="#263238"/>
<path d="M506.312 438.402C505.612 438.256 504.901 438.167 504.187 438.135C502.452 438.102 500.751 438.621 499.33 439.616C498.541 440.129 497.871 440.804 497.363 441.596C496.974 442.257 496.734 442.994 496.658 443.757C496.623 444.471 496.656 445.186 496.756 445.894C496.508 445.206 496.412 444.473 496.476 443.745C496.53 442.949 496.767 442.176 497.168 441.486C497.681 440.655 498.369 439.946 499.184 439.41C500.637 438.388 502.388 437.876 504.163 437.953C504.693 437.977 505.219 438.062 505.729 438.208C505.932 438.243 506.128 438.309 506.312 438.402Z" fill="#263238"/>
<path d="M504.927 441.861C504.697 442.164 504.385 442.395 504.029 442.529C503.61 442.716 503.159 442.819 502.7 442.831C502.242 442.844 501.786 442.766 501.357 442.602C500.936 442.421 500.554 442.159 500.235 441.83C499.916 441.5 499.666 441.11 499.5 440.683C499.334 440.34 499.271 439.956 499.317 439.578C499.413 439.928 499.527 440.272 499.657 440.61C500.008 441.405 500.653 442.032 501.458 442.359C502.263 442.685 503.163 442.685 503.968 442.359C504.587 442.128 504.903 441.825 504.927 441.861Z" fill="#263238"/>
<path d="M504.041 444.851C503.726 445.123 503.352 445.318 502.949 445.422C501.988 445.729 500.958 445.75 499.986 445.483C499.018 445.206 498.15 444.658 497.484 443.904C497.2 443.599 496.981 443.24 496.841 442.848C496.841 442.848 497.108 443.248 497.618 443.783C498.291 444.467 499.126 444.968 500.046 445.24C500.977 445.491 501.957 445.491 502.888 445.24C503.616 445.058 504.017 444.815 504.041 444.851Z" fill="#263238"/>
<path d="M509.092 452.865C508.69 452.135 508.183 451.468 507.587 450.885C506.043 449.601 504.283 448.601 502.389 447.935C500.192 447.073 498.152 446.393 496.695 445.87L494.97 445.251C494.753 445.185 494.541 445.099 494.339 444.996C494.562 445.026 494.782 445.079 494.995 445.154L496.755 445.7C498.225 446.174 500.264 446.842 502.474 447.704C504.407 448.371 506.189 449.41 507.72 450.764C508.163 451.197 508.536 451.697 508.825 452.245C508.938 452.441 509.027 452.648 509.092 452.865Z" fill="#263238"/>
<path d="M491.741 434.494C490.505 433.887 489.337 433.15 488.256 432.296C485.45 430.137 483.136 427.405 481.469 424.282L481.699 424.197C482.212 426.148 483.131 427.968 484.395 429.54L484.82 430.05L484.237 429.722L483.545 429.321C479.098 426.731 475.606 422.775 473.588 418.041C472.975 416.623 472.511 415.146 472.204 413.633C472.01 412.552 471.961 411.957 471.961 411.957C471.961 411.957 471.961 412.103 472.058 412.382C472.155 412.661 472.167 413.086 472.301 413.596C472.645 415.091 473.129 416.551 473.746 417.956C475.794 422.622 479.267 426.519 483.666 429.09L484.359 429.491L484.201 429.685C482.914 428.086 481.983 426.232 481.469 424.245L481.202 423.25L481.687 424.16C483.329 427.258 485.595 429.983 488.341 432.162C489.121 432.786 489.931 433.37 490.77 433.911L491.462 434.324L491.741 434.494Z" fill="#263238"/>
<path d="M429.813 425.299C429.65 425.27 429.491 425.221 429.34 425.154C429.036 425.044 428.611 424.862 428.125 424.619C426.771 423.98 425.489 423.199 424.3 422.288C423.111 421.38 422.021 420.351 421.046 419.216C420.748 418.875 420.468 418.518 420.208 418.147C420.014 417.892 419.917 417.747 419.941 417.735C419.965 417.722 420.403 418.269 421.155 419.095C422.159 420.188 423.256 421.192 424.434 422.094C425.612 422.987 426.863 423.779 428.174 424.462C429.182 424.984 429.825 425.263 429.813 425.299Z" fill="#263238"/>
<path d="M429.813 423.649C428.785 422.95 427.811 422.175 426.899 421.33C425.925 420.554 425.004 419.715 424.143 418.816C425.167 419.52 426.141 420.295 427.057 421.136C428.027 421.915 428.948 422.755 429.813 423.649Z" fill="#263238"/>
<path d="M432.145 423.017C431.404 422.732 430.718 422.321 430.117 421.803C429.473 421.328 428.922 420.74 428.49 420.066C428.49 420.066 429.267 420.783 430.287 421.609C431.307 422.434 432.182 422.956 432.145 423.017Z" fill="#263238"/>
<g opacity="0.3">
<path d="M431.332 398.415C434.975 398.342 432.449 404.486 430.907 407.376C430.129 408.811 429.031 410.048 427.698 410.992C426.365 411.935 424.833 412.559 423.221 412.816C420.088 413.277 416.858 412.306 413.737 412.877C407.253 414.091 403.635 421.291 397.612 423.975C395.537 424.866 393.264 425.195 391.021 424.928C388.779 424.662 386.646 423.809 384.838 422.457C381.268 419.725 380.369 412.452 381.062 408.02C381.062 408.129 393.204 399.228 431.332 398.415Z" fill="white"/>
</g>
<g opacity="0.3">
<path d="M455.932 437.358C457.487 436.144 459.939 436.435 461.919 436.787C463.881 437.218 465.723 438.08 467.31 439.313C468.143 439.819 468.867 440.485 469.44 441.273C470.013 442.061 470.424 442.955 470.649 443.903C470.941 446.137 469.435 448.189 468.075 449.974C467.542 450.725 466.899 451.393 466.169 451.953C465.801 452.234 465.379 452.435 464.929 452.541C464.479 452.648 464.012 452.659 463.558 452.573C462.605 452.225 461.794 451.572 461.251 450.715C459.377 448.303 457.78 445.688 456.491 442.919C455.665 441.171 454.997 439.058 455.932 437.37" fill="white"/>
</g>
<path d="M429.547 458.037C429.547 458.037 429.547 457.88 429.607 457.588C429.668 457.297 429.753 456.884 429.814 456.374C430.047 454.811 430.104 453.226 429.984 451.65C429.779 449.322 429.175 447.047 428.199 444.923C427.012 442.314 425.498 439.866 423.694 437.638C421.748 435.535 419.398 433.846 416.785 432.671C414.657 431.696 412.446 430.912 410.179 430.328C408.236 429.818 406.646 429.514 405.541 429.308L404.326 429.089C404.175 429.066 404.025 429.034 403.877 428.992C406.033 429.239 408.168 429.645 410.264 430.206C412.55 430.777 414.781 431.549 416.93 432.514C419.577 433.695 421.956 435.401 423.924 437.528C425.748 439.772 427.274 442.241 428.466 444.875C429.434 447.029 430.025 449.333 430.214 451.687C430.315 453.274 430.229 454.867 429.959 456.435C429.717 457.442 429.547 458.037 429.547 458.037Z" fill="#263238"/>
<path d="M491.364 408.542C491.364 408.615 490.806 408.736 489.907 408.542C488.727 408.328 487.637 407.771 486.774 406.939C485.919 406.106 485.324 405.043 485.062 403.879C484.88 402.993 484.965 402.422 485.062 402.422C485.159 402.422 485.22 402.956 485.499 403.758C485.862 404.786 486.452 405.719 487.224 406.49C488.016 407.243 488.972 407.804 490.016 408.129C490.818 408.396 491.364 408.445 491.364 408.542Z" fill="#263238"/>
<path d="M495.688 420.598C495.518 420.598 495.348 420.44 495.311 420.197C495.279 420.1 495.285 419.995 495.328 419.902C495.371 419.81 495.448 419.737 495.542 419.699C495.724 419.699 495.894 419.845 495.931 420.1C495.967 420.355 495.87 420.561 495.688 420.598Z" fill="#263238"/>
<path d="M497.473 420.041C497.384 420.084 497.282 420.089 497.189 420.058C497.096 420.026 497.019 419.959 496.975 419.871C496.91 419.8 496.874 419.707 496.874 419.61C496.874 419.514 496.91 419.421 496.975 419.349C497.064 419.307 497.165 419.301 497.258 419.333C497.351 419.364 497.428 419.431 497.473 419.519C497.54 419.589 497.578 419.683 497.578 419.78C497.578 419.878 497.54 419.971 497.473 420.041Z" fill="#263238"/>
<path d="M497.448 421.293C497.421 421.322 497.388 421.345 497.352 421.361C497.315 421.377 497.276 421.385 497.236 421.385C497.196 421.385 497.157 421.377 497.12 421.361C497.083 421.345 497.051 421.322 497.023 421.293C496.968 421.236 496.937 421.16 496.937 421.081C496.937 421.001 496.968 420.925 497.023 420.868C497.08 420.812 497.156 420.781 497.236 420.781C497.315 420.781 497.392 420.812 497.448 420.868C497.477 420.895 497.5 420.928 497.516 420.965C497.532 421.001 497.54 421.041 497.54 421.081C497.54 421.12 497.532 421.16 497.516 421.196C497.5 421.233 497.477 421.266 497.448 421.293Z" fill="#263238"/>
<path d="M489.907 415.768C489.81 415.914 489.543 415.902 489.3 415.768C489.057 415.635 488.948 415.355 489.045 415.21C489.142 415.064 489.421 415.088 489.652 415.21C489.883 415.331 490.004 415.623 489.907 415.768Z" fill="#263238"/>
<path d="M490.697 413.97C490.527 413.97 490.369 413.812 490.357 413.593C490.346 413.546 490.345 413.498 490.353 413.45C490.361 413.402 490.379 413.357 490.405 413.316C490.431 413.276 490.465 413.241 490.504 413.213C490.544 413.186 490.589 413.166 490.636 413.156C490.818 413.156 490.964 413.314 490.988 413.545C491.003 413.639 490.981 413.736 490.927 413.815C490.872 413.894 490.79 413.949 490.697 413.97Z" fill="#263238"/>
<path d="M491.049 416.34C490.867 416.34 490.746 416.206 490.758 416.085C490.77 415.964 490.928 415.903 491.098 415.927C491.268 415.951 491.401 416.061 491.389 416.17C491.377 416.279 491.219 416.352 491.049 416.34Z" fill="#263238"/>
<path d="M522.474 437.844C522.474 437.844 517.314 434.602 511.036 430.473C504.758 426.345 499.707 422.933 499.743 422.872C499.78 422.811 504.904 426.126 511.182 430.255C517.46 434.383 522.511 437.795 522.474 437.844Z" fill="#263238"/>
<path d="M530.331 433.35H530.015C529.809 433.35 529.505 433.265 529.129 433.18C528.364 433.034 527.259 432.767 525.911 432.379C522.439 431.294 519.027 430.029 515.687 428.59L505.596 424.437L502.548 423.15L501.723 422.786L501.443 422.652C501.549 422.669 501.651 422.702 501.747 422.75L502.585 423.065L505.669 424.279L515.784 428.372C519.718 429.987 523.3 431.407 525.972 432.221C527.295 432.634 528.4 432.925 529.153 433.095L530.027 433.314L530.331 433.35Z" fill="#263238"/>
<g opacity="0.3">
<path d="M489.045 391.617C490.58 391.411 492.017 390.742 493.161 389.698C494.192 388.635 494.878 387.285 495.129 385.825C495.382 384.378 495.484 382.909 495.432 381.441L491.304 385.363C490.417 386.201 489.543 387.039 488.742 387.938C488.307 388.392 487.969 388.929 487.746 389.516C487.64 389.81 487.613 390.126 487.669 390.433C487.724 390.74 487.86 391.027 488.062 391.265C488.168 391.376 488.296 391.465 488.438 391.526C488.58 391.587 488.733 391.618 488.887 391.618C489.042 391.618 489.194 391.587 489.336 391.526C489.478 391.465 489.606 391.376 489.713 391.265" fill="black"/>
</g>
<g opacity="0.3">
<path d="M516.148 416.3C516.216 413.745 517.261 411.313 519.068 409.506C520.876 407.699 523.308 406.653 525.863 406.586C523.883 410.69 518.941 412.451 516.148 416.045" fill="black"/>
</g>
<path d="M418.194 278.363L416.627 279.176C415.761 299.552 414.895 319.923 414.029 340.29C413.555 351.522 413.118 362.973 417.295 373.986L484.529 391.897C487.206 387.336 488.824 382.231 489.265 376.961C491.424 354.404 492.106 331.73 491.305 309.084C491.11 301.993 491.742 285.551 485.233 281.156C474.22 273.761 464.032 276.299 452.898 273.797C441.763 271.296 430.324 277.307 418.898 277.185" fill="#263238"/>
<path d="M385.834 350.224L366.017 318.848C365.191 318.848 307.562 330.407 307.562 330.407C307.562 330.407 267.418 333.88 266.435 334.536C265.451 335.192 253.224 357.826 253.224 357.826C261.311 359.149 264.613 348.743 264.613 348.743L272.713 344.117L282.621 345.331C279.792 346.618 277.4 347.905 276.671 348.804C274.522 351.439 273.368 356.563 274.692 356.733C276.015 356.903 278.42 353.09 284.649 352.264C290.878 351.439 306.676 348.136 306.676 348.136L312.346 348.804L385.834 350.224Z" fill="#FFD7C8"/>
<path d="M292.518 341.227C290.687 342.133 288.811 342.944 286.896 343.655C285.065 344.57 283.184 345.381 281.262 346.084C282.9 344.828 284.717 343.825 286.653 343.109C288.5 342.184 290.478 341.549 292.518 341.227Z" fill="#FFCCBC"/>
<path d="M336.219 159.45C338.162 181.732 339.862 205.459 329.334 225.203C331.683 224.716 333.761 223.358 335.15 221.402C334.288 228.797 333.426 236.289 334.64 243.623C335.855 250.957 339.497 258.194 345.727 262.213C345.812 261.291 345.909 260.368 345.994 259.457C348.422 275.17 362.241 288.405 378.05 290.129C384.874 290.882 392.719 289.121 396.337 283.293C399.094 278.849 398.766 273.227 398.304 268.03L389.804 166.529C389.015 157.082 388.044 147.162 382.64 139.39C379.577 134.956 375.261 131.535 370.244 129.566C365.227 127.596 359.736 127.167 354.474 128.334C349.212 129.5 344.418 132.21 340.703 136.115C336.988 140.02 334.522 144.944 333.62 150.258" fill="#263238"/>
<path d="M381.669 224.695C381.669 224.695 365.24 234.215 360.225 242.108C355.21 250.001 357.08 272.137 357.08 272.137C355.029 279.863 353.872 287.8 353.632 295.791C353.632 308.577 363.528 317.951 366.054 324.811C368.579 331.672 366.843 363.012 366.843 363.012L460.341 365.295V300.866L472.776 301.995C472.776 301.995 476.819 239.096 458.022 231.143C439.225 223.19 416.616 215.297 416.616 215.297L381.669 224.695Z" fill="#6D41A1"/>
<path d="M473.262 283.538C473.055 283.913 472.807 284.263 472.521 284.582C471.721 285.518 470.753 286.296 469.668 286.877C467.948 287.799 466.053 288.346 464.106 288.48C461.527 288.635 458.943 288.255 456.517 287.363C453.607 286.279 450.799 284.938 448.126 283.356C445.104 281.537 441.911 280.016 438.595 278.814C434.89 277.637 430.932 277.502 427.156 278.426C423.117 279.529 419.189 281.009 415.426 282.846C411.624 284.706 407.646 286.183 403.551 287.254C399.661 288.175 395.591 287.977 391.809 286.683C388.478 285.398 385.308 283.732 382.362 281.717C379.816 279.978 377.164 278.4 374.421 276.993C372.137 275.858 369.67 275.134 367.135 274.856C365.237 274.654 363.319 274.806 361.477 275.305C359.904 275.758 358.432 276.508 357.142 277.515C357.436 277.203 357.761 276.922 358.113 276.677C359.114 275.965 360.226 275.424 361.404 275.074C363.272 274.516 365.23 274.322 367.171 274.504C369.736 274.762 372.234 275.469 374.554 276.592C377.336 277.96 380.026 279.51 382.605 281.231C385.533 283.197 388.673 284.826 391.967 286.088C394.701 287.003 397.596 287.338 400.467 287.071C401.45 286.962 402.434 286.792 403.417 286.598C407.47 285.526 411.407 284.058 415.171 282.214C418.972 280.364 422.94 278.88 427.023 277.782C430.9 276.834 434.965 276.981 438.765 278.207C442.116 279.432 445.337 280.986 448.382 282.846C451.02 284.43 453.791 285.783 456.663 286.889C459.028 287.791 461.552 288.205 464.082 288.104C466.005 288.03 467.891 287.554 469.619 286.707C470.695 286.163 471.666 285.431 472.485 284.546C473.019 283.89 473.262 283.514 473.262 283.538Z" fill="#FAFAFA"/>
<path d="M470.274 260.105C470.206 260.187 470.129 260.26 470.043 260.323C469.885 260.445 469.667 260.651 469.327 260.882C468.356 261.538 467.286 262.035 466.157 262.351C463.231 263.25 458.568 263.104 453.529 260.967C451.016 259.911 448.417 258.453 445.6 256.996C442.667 255.349 439.497 254.165 436.202 253.487C432.532 252.903 428.787 252.998 425.152 253.766C421.228 254.574 417.378 255.703 413.64 257.142C409.767 258.563 406.003 260.02 402.239 261.113C398.633 262.233 394.89 262.846 391.116 262.934C384.708 262.846 378.414 261.231 372.756 258.223C368.926 256.268 365.269 253.989 361.828 251.411C360.614 250.488 359.691 249.771 359.071 249.261L358.379 248.691C358.221 248.557 358.136 248.484 358.149 248.472C358.161 248.46 358.246 248.472 358.416 248.642L359.144 249.164L361.974 251.204C365.438 253.693 369.092 255.905 372.902 257.822C378.515 260.733 384.733 262.284 391.055 262.351C394.764 262.24 398.441 261.623 401.984 260.518C405.699 259.437 409.463 257.968 413.337 256.547C417.107 255.1 420.989 253.967 424.945 253.159C428.654 252.384 432.475 252.302 436.214 252.916C439.565 253.627 442.785 254.856 445.758 256.559C448.575 258.041 451.149 259.51 453.626 260.578C458.556 262.74 463.122 262.946 466 262.145C467.541 261.744 468.992 261.051 470.274 260.105Z" fill="#FAFAFA"/>
<path d="M428.333 320.986C428.124 321.116 427.904 321.23 427.677 321.326C427.252 321.521 426.609 321.812 425.771 322.164C423.416 323.178 420.978 323.991 418.486 324.593C414.749 325.596 410.799 325.473 407.132 324.241C403.004 322.808 399.191 319.869 395.087 317.186C391.278 314.573 386.942 312.828 382.385 312.074C380.396 311.777 378.385 311.655 376.375 311.709C374.625 311.77 372.884 311.968 371.166 312.304C368.668 312.791 366.241 313.586 363.941 314.672C362.301 315.425 361.451 315.959 361.415 315.886C361.593 315.718 361.793 315.575 362.01 315.461C362.597 315.083 363.205 314.739 363.831 314.429C366.128 313.234 368.58 312.363 371.117 311.843C372.861 311.472 374.631 311.24 376.411 311.151C378.441 311.086 380.472 311.196 382.483 311.479C387.134 312.212 391.563 313.97 395.451 316.627C399.579 319.347 403.331 322.249 407.339 323.67C410.904 324.886 414.746 325.046 418.4 324.131C420.88 323.55 423.315 322.791 425.686 321.861L427.629 321.132C427.855 321.05 428.093 321.001 428.333 320.986Z" fill="#FAFAFA"/>
<path d="M428.127 343.996C428.127 344.056 427.265 343.826 425.699 343.595C423.486 343.293 421.246 343.236 419.02 343.425C415.733 343.734 412.482 344.343 409.306 345.246C405.663 346.23 401.778 347.553 397.576 348.707C393.63 349.865 389.546 350.489 385.434 350.565C382.057 350.567 378.714 349.898 375.598 348.598C373.503 347.716 371.599 346.438 369.988 344.833C369.551 344.393 369.146 343.922 368.774 343.425C368.639 343.259 368.521 343.08 368.422 342.891C368.483 342.891 368.993 343.571 370.134 344.651C371.774 346.165 373.68 347.363 375.756 348.185C378.828 349.399 382.106 350.009 385.409 349.982C389.465 349.871 393.49 349.234 397.382 348.088C401.559 346.958 405.481 345.659 409.136 344.688C412.364 343.8 415.67 343.227 419.008 342.976C421.266 342.829 423.532 342.955 425.759 343.352C426.362 343.463 426.958 343.609 427.544 343.789C427.748 343.827 427.945 343.897 428.127 343.996Z" fill="#FAFAFA"/>
<path d="M428.006 315.447C427.836 315.447 427.69 306.643 427.69 295.788C427.69 284.932 427.836 276.129 428.006 276.129C428.176 276.129 428.334 284.932 428.334 295.788C428.334 306.643 428.188 315.447 428.006 315.447Z" fill="#263238"/>
<path d="M419.178 327.349C419.018 327.404 418.849 327.428 418.68 327.422C418.34 327.422 417.854 327.495 417.21 327.483C415.412 327.494 413.618 327.319 411.856 326.96C405.955 325.852 400.538 322.957 396.337 318.667C392.137 314.378 389.356 308.901 388.372 302.979C388.051 301.208 387.913 299.41 387.959 297.612C387.959 296.968 388.032 296.482 388.056 296.155C388.056 295.981 388.084 295.809 388.141 295.645C388.167 298.087 388.39 300.524 388.809 302.93C389.899 308.713 392.678 314.044 396.795 318.25C400.911 322.455 406.182 325.347 411.941 326.56C414.328 327.016 416.748 327.28 419.178 327.349Z" fill="#263238"/>
<g opacity="0.3">
<path d="M369.818 357.204C383.405 349.117 401.619 350.489 413.847 340.471C419.615 335.747 423.355 328.948 425.601 321.844C427.847 314.741 428.685 307.273 429.523 299.902L431.855 341.09C432.012 343.895 432.073 347.016 430.24 349.165C428.697 350.974 426.196 351.594 423.877 352.104L394.079 358.734C386.016 360.518 377.407 362.279 369.696 359.316" fill="black"/>
</g>
<g opacity="0.2">
<path d="M408.686 254.848C406.124 258.005 403.526 261.235 402.129 265.06C400.733 268.885 400.745 273.45 403.186 276.704C405.845 280.25 410.848 281.416 415.195 280.554C419.542 279.692 423.355 277.117 426.803 274.349C428.527 272.965 430.446 271.447 432.62 271.495C433.911 271.678 435.186 271.963 436.432 272.345C440.014 272.977 443.56 270.645 445.6 267.646C447.64 264.647 448.551 261.053 449.704 257.604C450.858 254.156 452.436 250.671 455.351 248.497C458.058 246.481 461.835 245.668 463.51 242.741C465.623 239.099 462.867 234.169 458.993 232.457C455.12 230.745 450.688 231.327 446.511 231.922" fill="black"/>
</g>
<g opacity="0.2">
<path d="M415.146 326.871C415.377 327.223 415.085 327.951 414.114 328.801C412.685 329.947 410.981 330.696 409.172 330.975C406.467 331.431 403.691 331.184 401.109 330.259C397.994 329.107 395.207 327.215 392.986 324.746C390.86 322.4 389.155 319.705 387.946 316.78C387.002 314.524 386.294 312.176 385.834 309.774C385.117 305.706 385.263 303.144 386.076 302.901C386.89 302.658 388.335 304.844 390.084 308.353C391.832 311.862 394.03 316.598 397.624 320.496C399.237 322.296 401.162 323.79 403.307 324.904C405.067 325.776 406.965 326.334 408.917 326.555C412.329 326.907 414.636 326.094 415.146 326.871Z" fill="black"/>
</g>
<path d="M472.824 301.993C472.824 302.163 462.758 301.398 450.385 300.269C438.011 299.14 427.994 298.095 428.006 297.913C428.018 297.731 438.072 298.508 450.445 299.637C462.819 300.767 472.837 301.811 472.824 301.993Z" fill="#263238"/>
<path d="M398.607 126.082C404.132 130.939 408.407 134.752 414.259 138.443C420.112 142.135 426.171 146.542 428.345 153.124C429.923 157.896 429.341 163.566 432.51 167.476C435.218 170.816 439.795 171.799 443.596 173.815C446.921 175.646 449.696 178.333 451.632 181.597C453.569 184.862 454.597 188.585 454.609 192.381C454.609 197.238 452.922 202.386 455.204 206.649C457.196 210.364 461.652 212.186 463.862 215.78C466.072 219.374 465.659 223.551 464.967 227.51C463.911 233.581 461.664 240.114 456.249 243.028C454.363 243.938 452.305 244.437 450.212 244.494C448.119 244.55 446.038 244.162 444.106 243.356C440.255 241.723 436.798 239.284 433.967 236.204C428.33 230.46 423.932 223.62 421.047 216.108C417.599 207.146 416.421 197.493 414.757 188.034C411.696 170.685 406.958 153.675 400.611 137.241C399.057 133.234 396.288 129.688 398.632 126.082" fill="#263238"/>
<path d="M444.35 202.108C444.35 202.108 444.677 201.889 445.309 201.489C446.224 200.904 447.108 200.272 447.956 199.594C449.29 198.534 450.485 197.31 451.514 195.951C452.875 194.149 453.756 192.031 454.076 189.795C454.407 187.082 453.719 184.343 452.145 182.109C451.279 180.88 450.083 179.921 448.697 179.34C447.176 178.821 445.58 178.554 443.973 178.551C442.198 178.556 440.452 178.109 438.898 177.252C437.339 176.199 436.217 174.615 435.74 172.795C435.216 170.966 435.047 169.054 435.243 167.161C435.425 165.255 435.801 163.373 436.068 161.466C436.366 159.608 436.366 157.715 436.068 155.856C435.697 154.077 434.952 152.396 433.883 150.927C431.78 148.153 429.067 145.901 425.953 144.345C423.027 142.755 420.076 141.516 417.454 140.107C411.417 136.966 405.827 133.034 400.83 128.414C399.786 127.455 399.009 126.666 398.499 126.131L397.916 125.512C397.783 125.366 397.722 125.293 397.734 125.281L397.953 125.463L398.584 126.046C399.13 126.556 399.932 127.261 401.012 128.232C404.004 130.895 407.19 133.33 410.544 135.518C412.856 137.031 415.247 138.417 417.709 139.67C420.344 141.042 423.294 142.257 426.269 143.86C429.466 145.452 432.257 147.752 434.429 150.587C435.552 152.129 436.334 153.892 436.724 155.759C437.04 157.685 437.04 159.65 436.724 161.576C436.469 163.506 436.08 165.376 435.91 167.234C435.719 169.048 435.876 170.882 436.372 172.638C436.801 174.319 437.829 175.787 439.262 176.766C440.732 177.569 442.383 177.987 444.058 177.98C445.713 178 447.354 178.292 448.915 178.842C450.384 179.468 451.646 180.495 452.558 181.805C454.185 184.158 454.881 187.031 454.513 189.868C454.149 192.169 453.209 194.341 451.781 196.182C450.732 197.552 449.508 198.777 448.138 199.825C447.275 200.497 446.362 201.102 445.406 201.634C445.078 201.829 444.823 201.95 444.653 202.035C444.558 202.079 444.455 202.103 444.35 202.108Z" fill="#263238"/>
<path d="M328.411 193.634L349.515 180.872C349.931 180.622 350.429 180.547 350.9 180.663C351.371 180.779 351.777 181.077 352.029 181.492C352.279 181.907 352.354 182.405 352.238 182.876C352.122 183.347 351.824 183.753 351.409 184.005L330.305 196.767L328.411 193.634Z" fill="#6D41A1"/>
<g opacity="0.4">
<path d="M351.41 184.001L349.516 180.868C349.931 180.618 350.429 180.543 350.9 180.659C351.371 180.775 351.777 181.073 352.029 181.488C352.28 181.903 352.355 182.401 352.239 182.872C352.123 183.344 351.825 183.749 351.41 184.001Z" fill="black"/>
</g>
<g opacity="0.4">
<path d="M329.72 195.733L350.803 182.984L350.275 182.112L329.192 194.86L329.72 195.733Z" fill="black"/>
</g>
<path d="M330.306 196.766L324.927 197.883L328.412 193.633L330.306 196.766Z" fill="#6D41A1"/>
<g opacity="0.5">
<path d="M330.306 196.766L324.927 197.883L328.412 193.633L330.306 196.766Z" fill="white"/>
</g>
<path d="M326.675 197.52L326.068 196.5L324.927 197.884L326.675 197.52Z" fill="#263238"/>
<path d="M361.791 133.709C354.506 136.102 348.423 141.21 344.805 147.971C341.187 154.732 340.313 162.626 342.363 170.015C345.666 181.915 349.455 194.786 352.344 202.242C359.084 219.582 373.339 218.89 373.339 218.89C373.339 218.89 376.011 230.085 378.354 240.746C380.576 250.922 391.25 257.43 402.202 255.317C413.033 253.217 420.1 243.418 418.048 233.303L400.174 155.347C399.244 151.306 397.482 147.504 394.999 144.183C392.517 140.862 389.369 138.095 385.757 136.059C382.146 134.022 378.149 132.762 374.022 132.357C369.896 131.953 365.73 132.413 361.791 133.709Z" fill="#FFD7C8"/>
<path d="M349.285 175.99C349.424 176.585 349.783 177.105 350.289 177.447C350.796 177.79 351.413 177.928 352.017 177.836C352.314 177.794 352.599 177.694 352.857 177.541C353.115 177.388 353.339 177.185 353.518 176.944C353.696 176.704 353.825 176.43 353.897 176.139C353.969 175.848 353.982 175.545 353.935 175.249C353.812 174.648 353.458 174.118 352.95 173.774C352.442 173.429 351.82 173.296 351.215 173.404C350.917 173.442 350.629 173.54 350.369 173.692C350.109 173.844 349.882 174.047 349.702 174.288C349.522 174.529 349.392 174.804 349.321 175.096C349.249 175.389 349.237 175.693 349.285 175.99Z" fill="#263238"/>
<path d="M347.706 173.185C348.058 173.428 349.528 171.764 352.005 171.23C354.482 170.696 356.57 171.546 356.765 171.23C356.874 171.072 356.461 170.599 355.55 170.186C354.317 169.675 352.956 169.557 351.653 169.846C350.363 170.127 349.195 170.807 348.313 171.789C347.682 172.481 347.536 173.088 347.706 173.185Z" fill="#263238"/>
<path d="M374.663 171.462C374.786 172.063 375.14 172.593 375.648 172.938C376.156 173.282 376.778 173.415 377.383 173.308C377.681 173.269 377.969 173.171 378.229 173.019C378.489 172.867 378.716 172.665 378.896 172.424C379.076 172.182 379.206 171.907 379.278 171.615C379.349 171.322 379.362 171.019 379.313 170.721C379.174 170.126 378.815 169.606 378.309 169.264C377.802 168.922 377.185 168.783 376.581 168.876C376.284 168.916 375.997 169.015 375.739 169.167C375.48 169.32 375.255 169.523 375.076 169.764C374.897 170.005 374.768 170.279 374.697 170.571C374.626 170.863 374.615 171.166 374.663 171.462Z" fill="#263238"/>
<path d="M373.764 168.498C374.117 168.74 375.586 167.065 378.063 166.543C380.54 166.02 382.629 166.858 382.823 166.543C382.932 166.385 382.519 165.899 381.609 165.498C380.376 164.982 379.014 164.864 377.711 165.158C376.421 165.431 375.251 166.107 374.372 167.089C373.692 167.793 373.594 168.4 373.764 168.498Z" fill="#263238"/>
<path d="M368.737 188.824C367.344 188.698 365.941 188.747 364.56 188.969C363.917 189.042 363.285 189.042 363.079 188.629C362.883 187.988 362.883 187.303 363.079 186.662C363.346 185.011 363.613 183.262 363.905 181.441C365.022 174.022 365.69 167.975 365.386 167.926C365.082 167.878 363.941 173.864 362.824 181.283C362.569 183.104 362.314 184.853 362.083 186.516C361.842 187.363 361.915 188.269 362.29 189.066C362.427 189.267 362.607 189.434 362.817 189.556C363.027 189.678 363.262 189.751 363.504 189.771C363.874 189.79 364.246 189.761 364.609 189.686C366.017 189.582 367.405 189.292 368.737 188.824Z" fill="#263238"/>
<path d="M373.363 218.527C381.85 216.827 389.698 212.804 396.034 206.906C396.034 206.906 392.864 220.506 374.529 222.692L373.363 218.527Z" fill="#FFCCBC"/>
<path d="M379.921 159.474C379.739 159.984 377.772 159.741 375.416 159.875C373.061 160.009 371.118 160.421 370.899 159.875C370.681 159.329 372.551 158.066 375.319 157.932C378.088 157.799 380.103 159.001 379.921 159.474Z" fill="#263238"/>
<path d="M354.543 161.819C354.543 162.353 352.539 162.839 350.159 163.555C347.779 164.271 345.8 164.915 345.521 164.454C345.241 163.992 346.966 162.499 349.625 161.734C352.284 160.969 354.543 161.309 354.543 161.819Z" fill="#263238"/>
<path d="M447.214 226.711C447.214 226.711 437.5 216.001 438.241 203.713C438.982 191.424 435.193 183.459 428.32 180.642C423.463 178.662 421.581 173.696 420.841 169.555C419.683 162.602 417.643 155.824 414.769 149.387C410.495 140.158 404.8 130.65 396.871 124.676C386.562 116.905 370.376 111.708 360.443 119.916C355.817 123.729 353.097 124.336 348.968 130.845C348.968 130.845 344.002 132.581 341.44 133.747C332.624 137.754 329.394 149.265 330.329 156.818C332.491 174.194 343.018 176.392 347.135 187.478C347.135 187.478 342.193 163.351 342.581 156.709C343.052 151.803 345.236 147.22 348.75 143.764C355.744 142.55 359.447 145.817 363.467 151.682C367.486 157.546 370.109 162.343 376.702 165.038C382.907 167.564 388.432 173.174 396.835 167.224C399.517 170.232 401.26 173.959 401.85 177.946C402.444 184.017 396.507 187.357 400.866 196.67C405.225 205.983 413.373 212.298 414.223 216.001" fill="#263238"/>
<path d="M373.303 193.829C373.598 193.257 374.033 192.77 374.569 192.413C375.104 192.056 375.722 191.841 376.363 191.789C376.825 191.74 377.292 191.784 377.737 191.92C378.181 192.055 378.594 192.279 378.949 192.578C379.297 192.865 379.547 193.253 379.664 193.688C379.782 194.123 379.761 194.584 379.605 195.007C379.345 195.439 378.963 195.785 378.507 196.001C378.052 196.217 377.542 196.293 377.043 196.221C375.999 196.067 374.996 195.708 374.092 195.165C373.825 195.05 373.581 194.885 373.376 194.679C373.278 194.578 373.212 194.451 373.186 194.312C373.16 194.174 373.176 194.032 373.23 193.902" fill="#FFBAAB"/>
<path d="M377.796 189.249C377.456 189.249 377.893 191.532 376.302 193.511C374.712 195.491 372.259 195.709 372.307 196.025C372.356 196.341 372.927 196.353 373.947 196.183C375.263 195.942 376.451 195.24 377.298 194.203C378.113 193.21 378.51 191.938 378.403 190.658C378.306 189.711 377.942 189.201 377.796 189.249Z" fill="#263238"/>
<path d="M400.806 196.035C403.175 198.435 404.871 201.417 405.724 204.68C406.576 207.943 406.555 211.373 405.663 214.626C404.448 218.888 401.716 222.676 401.097 227.06C400.332 232.402 402.797 237.599 404.849 242.59C406.901 247.581 408.626 253.3 406.44 258.23C405.541 260.294 404.011 262.043 403.076 264.095C402.141 266.147 401.947 268.83 403.513 270.445C404.723 271.467 406.253 272.03 407.836 272.036C413.694 272.446 419.541 271.09 424.621 268.144C429.701 265.199 433.781 260.798 436.335 255.51L438.764 260.792C444.051 252.81 446.447 243.259 445.552 233.726C444.657 224.194 440.526 215.255 433.846 208.396" fill="#263238"/>
<path d="M393.63 170.89C393.363 169.676 395.803 166.701 396.981 166.385C399.701 165.681 404.437 165.742 406.598 173.209C409.694 183.883 398.669 183.579 398.56 183.276C398.45 182.972 394.565 175.092 393.63 170.89Z" fill="#FFD7C8"/>
<path d="M399.968 178.479C399.968 178.479 400.187 178.564 400.551 178.613C401.048 178.673 401.548 178.538 401.948 178.236C402.955 177.496 403.38 175.431 402.883 173.501C402.658 172.578 402.226 171.719 401.62 170.987C401.425 170.681 401.158 170.427 400.843 170.247C400.527 170.068 400.173 169.967 399.81 169.955C399.582 169.965 399.365 170.052 399.192 170.202C399.02 170.352 398.904 170.556 398.863 170.781C398.803 171.133 398.936 171.315 398.863 171.352C398.79 171.388 398.584 171.242 398.535 170.781C398.518 170.499 398.6 170.22 398.766 169.992C398.994 169.683 399.334 169.478 399.713 169.421C400.178 169.38 400.645 169.458 401.07 169.65C401.496 169.841 401.865 170.139 402.142 170.514C402.862 171.303 403.375 172.258 403.635 173.294C404.194 175.468 403.635 177.799 402.263 178.698C402 178.864 401.703 178.968 401.394 179.004C401.085 179.04 400.772 179.006 400.478 178.904C400.065 178.734 399.932 178.516 399.968 178.479Z" fill="#FFCCBC"/>
<path d="M451.064 201.418C450.931 201.418 451.064 200.908 451.064 200.046C451.104 198.797 450.872 197.554 450.384 196.403C449.615 194.615 448.408 193.049 446.875 191.849C444.731 190.309 442.353 189.124 439.832 188.34C436.57 187.356 433.414 186.05 430.409 184.442C428.649 183.42 427.113 182.053 425.892 180.423C424.683 178.698 423.746 176.798 423.112 174.789C422.432 172.834 421.897 170.855 421.132 169.009C420.478 167.204 419.409 165.578 418.012 164.261C415.183 161.748 410.726 161.201 406.318 161.541C401.911 161.881 397.284 162.999 392.561 162.622C390.219 162.439 387.933 161.817 385.822 160.789C383.864 159.817 382.043 158.593 380.406 157.146C377.561 154.485 374.942 151.593 372.574 148.5C370.594 145.931 368.356 143.571 365.896 141.457C364.195 139.921 362.188 138.761 360.008 138.053C357.827 137.346 355.522 137.107 353.243 137.353C351.997 137.523 350.79 137.905 349.673 138.483C348.884 138.871 348.459 139.114 348.398 139.029C348.337 138.944 348.604 138.543 349.321 137.948C350.388 137.086 351.632 136.468 352.964 136.139C355.091 135.624 357.306 135.591 359.448 136.042C362.29 136.647 364.956 137.893 367.243 139.685C369.924 141.784 372.367 144.17 374.529 146.8C376.895 149.699 379.477 152.414 382.252 154.924C385.146 157.587 388.838 159.222 392.755 159.574C396.835 159.878 401.255 158.846 406.027 158.433C408.46 158.211 410.912 158.329 413.313 158.785C415.791 159.234 418.105 160.337 420.015 161.979C421.756 163.63 423.083 165.668 423.889 167.928C424.69 170.017 425.212 172.033 425.82 173.89C426.331 175.646 427.1 177.316 428.102 178.845C429.078 180.212 430.317 181.372 431.745 182.257C434.562 183.869 437.521 185.218 440.585 186.288C443.27 187.267 445.764 188.705 447.956 190.538C449.619 192.013 450.845 193.915 451.501 196.039C451.919 197.373 451.97 198.795 451.647 200.155C451.404 201.054 451.137 201.454 451.064 201.418Z" fill="#455A64"/>
<path d="M387.449 121.093C386.327 120.024 385.432 118.739 384.817 117.317C384.201 115.894 383.879 114.362 383.867 112.812C383.876 111.261 384.271 109.737 385.015 108.376C385.758 107.016 386.829 105.861 388.129 105.016C389.942 103.966 392.049 103.539 394.128 103.802C395.889 103.988 397.578 104.6 399.05 105.584C400.522 106.568 401.734 107.895 402.579 109.45C403.425 111.006 403.88 112.744 403.905 114.514C403.931 116.285 403.525 118.035 402.724 119.614C401.923 121.193 400.75 122.554 399.306 123.58C397.863 124.605 396.191 125.264 394.436 125.501C392.682 125.737 390.896 125.543 389.232 124.936C387.569 124.329 386.077 123.327 384.887 122.016" fill="#263238"/>
<path d="M398.062 124.057C397.334 124.253 396.574 124.303 395.827 124.203C394.005 124.083 392.221 123.621 390.569 122.843C388.924 122.063 387.438 120.984 386.186 119.661C385.629 119.153 385.186 118.532 384.887 117.84C386.561 119.698 388.588 121.205 390.85 122.272C393.111 123.339 395.563 123.946 398.062 124.057Z" fill="#6D41A1"/>
<path d="M341.623 180.944C341.607 180.295 341.636 179.646 341.708 179.001C341.677 177.237 341.428 175.483 340.967 173.78C340.207 171.262 339.265 168.803 338.15 166.422C336.755 163.483 335.645 160.417 334.835 157.266C334.457 155.602 334.31 153.894 334.398 152.19C334.501 150.598 334.883 149.036 335.527 147.576C336.601 145.103 338.295 142.949 340.445 141.323C341.897 140.216 343.545 139.392 345.302 138.894C345.77 138.755 346.249 138.657 346.735 138.603C347.075 138.554 347.245 138.554 347.245 138.603C347.245 138.676 346.565 138.761 345.375 139.161C343.309 139.869 341.415 141.005 339.819 142.495C338.222 143.984 336.958 145.795 336.11 147.807C335.507 149.213 335.154 150.712 335.066 152.239C334.988 153.87 335.135 155.505 335.503 157.096C336.306 160.209 337.396 163.242 338.757 166.155C339.856 168.567 340.758 171.064 341.453 173.622C341.888 175.368 342.076 177.167 342.011 178.965C341.951 179.596 341.853 180.094 341.805 180.422C341.756 180.75 341.647 180.956 341.623 180.944Z" fill="#455A64"/>
<path d="M352.83 267.679C352.581 267.555 352.342 267.413 352.114 267.254C351.44 266.833 350.794 266.366 350.183 265.857C347.953 263.964 346.071 261.696 344.622 259.154C342.485 255.365 341.077 251.21 340.469 246.903C339.801 241.657 339.867 236.344 340.664 231.117C341.429 225.531 342.57 220.31 343.468 215.538C344.316 211.326 344.92 207.069 345.278 202.788C345.5 199.907 345.5 197.012 345.278 194.131C345.108 192.078 344.901 190.961 344.974 190.949C345.056 191.215 345.117 191.487 345.156 191.763C345.278 192.285 345.387 193.074 345.521 194.106C345.839 197.001 345.904 199.918 345.715 202.825C345.411 207.129 344.847 211.411 344.027 215.647C343.153 220.432 342.036 225.653 341.283 231.202C340.487 236.388 340.401 241.657 341.028 246.866C341.594 251.123 342.94 255.239 344.998 259.009C346.392 261.54 348.198 263.822 350.341 265.76C351.835 267.023 352.867 267.606 352.83 267.679Z" fill="#455A64"/>
<path d="M406.974 265.141C406.974 265.141 406.974 265.056 407.193 264.922L407.885 264.339C408.504 263.829 409.403 263.125 410.532 262.081C413.741 259.284 416.624 256.136 419.129 252.695C422.886 247.619 425.19 241.616 425.795 235.331C426.136 231.636 425.689 227.911 424.484 224.402C423.27 220.759 420.781 217.529 418.741 213.923C417.683 212.146 416.894 210.223 416.397 208.216C415.976 206.254 415.817 204.245 415.923 202.242C416.081 198.32 416.786 194.628 416.858 191.083C416.972 187.727 416.596 184.373 415.741 181.126C414.994 178.296 413.73 175.628 412.014 173.257C409.519 169.804 405.948 167.275 401.862 166.069C400.354 165.681 398.805 165.469 397.248 165.438H397.552H398.462C399.629 165.466 400.789 165.621 401.923 165.899C406.115 167.042 409.799 169.566 412.378 173.063C414.145 175.468 415.458 178.176 416.251 181.053C417.151 184.347 417.56 187.755 417.466 191.168C417.466 194.811 416.713 198.453 416.567 202.339C416.461 204.286 416.616 206.238 417.028 208.143C417.513 210.095 418.283 211.964 419.311 213.692C421.315 217.238 423.84 220.504 425.091 224.269C426.316 227.857 426.763 231.665 426.403 235.44C425.767 241.824 423.38 247.909 419.506 253.022C416.955 256.465 414.004 259.591 410.714 262.336C409.5 263.307 408.638 264.024 407.994 264.497L407.254 265.032C407.164 265.076 407.07 265.112 406.974 265.141Z" fill="#455A64"/>
<path d="M407.144 180.093C407.144 180.093 407.533 180.287 408.079 180.822C408.876 181.581 409.444 182.548 409.718 183.615C409.889 184.427 409.869 185.268 409.658 186.071C409.447 186.874 409.052 187.617 408.504 188.241C407.862 189.034 407.03 189.652 406.085 190.038C405.141 190.424 404.114 190.566 403.101 190.451C402.091 190.295 401.14 189.876 400.343 189.237C399.545 188.598 398.931 187.76 398.559 186.808C398.242 185.972 398.163 185.064 398.329 184.185C398.474 183.427 398.785 182.709 399.239 182.085C399.873 181.174 400.791 180.499 401.85 180.166C402.235 180.014 402.655 179.968 403.064 180.032C403.064 180.093 402.651 180.13 401.971 180.397C401.016 180.794 400.203 181.471 399.64 182.34C399.217 182.956 398.951 183.666 398.864 184.409C398.777 185.152 398.873 185.904 399.142 186.602C399.487 187.448 400.043 188.191 400.758 188.761C401.472 189.33 402.321 189.708 403.222 189.856C404.131 189.953 405.05 189.825 405.897 189.482C406.745 189.139 407.494 188.591 408.079 187.889C408.582 187.333 408.953 186.671 409.164 185.952C409.374 185.233 409.418 184.475 409.293 183.736C409.067 182.724 408.591 181.785 407.909 181.004C407.632 180.719 407.377 180.415 407.144 180.093Z" fill="#D8BA21"/>
<path d="M401.146 130.066C401.137 130.251 401.109 130.434 401.061 130.613C401.061 130.819 400.964 131.038 400.903 131.281L400.612 132.167C399.902 134.031 398.805 135.724 397.394 137.133C395.314 139.263 392.654 140.732 389.744 141.359C388.02 141.714 386.246 141.747 384.51 141.456C382.669 141.121 380.875 140.562 379.168 139.793C375.659 138.238 372.623 136.235 369.696 134.802C367.163 133.42 364.382 132.554 361.512 132.252C359.576 132.075 357.624 132.341 355.805 133.029C354.591 133.551 353.923 134.025 353.887 133.976C354.01 133.835 354.153 133.712 354.312 133.612C354.753 133.301 355.22 133.029 355.708 132.799C357.545 132.01 359.542 131.669 361.537 131.803C364.477 132.034 367.34 132.86 369.951 134.231C372.939 135.664 376.023 137.643 379.423 139.161C381.078 139.944 382.824 140.519 384.62 140.873C386.277 141.184 387.977 141.184 389.635 140.873C392.45 140.294 395.038 138.916 397.09 136.903C398.494 135.554 399.617 133.94 400.393 132.155L400.745 131.305L400.952 130.674C401.049 130.273 401.122 130.066 401.146 130.066Z" fill="#455A64"/>
<path d="M377.213 395.118L301.006 431.947L161.305 393.855L229.886 356.383L377.213 395.118Z" fill="#263238"/>
<path d="M293.186 393.561L313.416 400.24L332.152 390.064L300.969 380.059L282.768 389.493L293.186 393.561Z" fill="#455A64"/>
<path d="M143.527 290.98C144.159 293.518 161.304 393.853 161.304 393.853L300.945 431.945L282.621 324.628L143.527 290.98Z" fill="#263238"/>
<path d="M290.842 372.703C291.012 372.703 293.429 385.914 296.234 402.27C299.039 418.627 301.176 431.923 301.006 431.947C300.836 431.971 298.419 418.748 295.615 402.38C292.81 386.011 290.672 372.727 290.842 372.703Z" fill="#455A64"/>
<path d="M217.813 364.347C221.591 362.884 223.274 358.139 221.574 353.749C219.874 349.359 215.434 346.986 211.657 348.449C207.879 349.912 206.196 354.657 207.896 359.047C209.596 363.437 214.036 365.81 217.813 364.347Z" fill="#6D41A1"/>
<path d="M360.225 380.265C360.225 380.265 442.03 387.271 455.569 377.46C469.108 367.649 469.121 301.787 469.121 301.787L428.588 298.047L428.006 343.825C425.213 346.156 354.676 357.837 348.605 357.376C348.605 357.376 311.63 361.322 309.615 361.322C307.599 361.322 294.218 376.561 294.218 377.266C294.264 377.799 294.418 378.317 294.67 378.789C294.923 379.26 295.269 379.676 295.687 380.01C295.226 380.59 294.99 381.319 295.023 382.06C295.057 382.801 295.357 383.504 295.869 384.041C295.869 384.041 295.323 386.615 297.338 387.162C299.354 387.708 299.536 388.631 301.916 387.162C304.296 385.693 316.026 376.561 316.026 376.561L324.829 375.821C324.829 375.821 303.385 388.097 305.219 390.853C307.053 393.61 311.29 390.489 316.026 387.915C320.762 385.34 328.679 380.775 330.136 380.398C331.593 380.022 360.225 380.265 360.225 380.265Z" fill="#FFD7C8"/>
<path d="M321.477 368.73C321.477 368.851 319.777 368.839 317.155 369.519C313.752 370.472 310.551 372.035 307.708 374.134C304.88 376.269 302.224 378.624 299.766 381.176C298.775 382.273 297.712 383.304 296.585 384.261C296.788 383.916 297.028 383.594 297.301 383.301C297.799 382.718 298.516 381.881 299.438 380.873C301.822 378.185 304.471 375.744 307.343 373.587C310.243 371.436 313.547 369.892 317.057 369.046C318.123 368.806 319.208 368.668 320.3 368.633C320.695 368.601 321.093 368.634 321.477 368.73Z" fill="#FFCCBC"/>
<path d="M316.876 365.731C316.876 365.852 315.407 365.828 313.148 366.447C310.214 367.29 307.469 368.687 305.061 370.563C302.654 372.468 300.416 374.577 298.371 376.865C297.545 377.841 296.652 378.758 295.699 379.61C296.384 378.523 297.169 377.503 298.043 376.562C300.014 374.166 302.237 371.988 304.673 370.066C307.138 368.129 309.992 366.746 313.039 366.01C313.959 365.796 314.899 365.678 315.844 365.658C316.189 365.62 316.539 365.645 316.876 365.731Z" fill="#FFCCBC"/>
<path d="M440.864 357.729C440.755 357.729 440.488 356.648 439.759 354.997C437.828 350.667 434.461 347.136 430.227 345.003C428.612 344.202 427.519 343.874 427.556 343.789C428.553 343.895 429.524 344.178 430.421 344.627C432.634 345.607 434.632 347.014 436.299 348.769C437.966 350.524 439.27 352.591 440.135 354.851C440.549 355.759 440.796 356.734 440.864 357.729Z" fill="#AA6550"/>
<path d="M300.3 443.672C296.742 444.546 295.151 449.136 296.341 452.597C297.531 456.057 300.676 458.462 303.858 460.259C313.463 465.662 326.212 466.937 335.137 460.477C339.047 457.66 342.107 452.657 340.492 448.116C339.084 444.145 334.724 442.045 330.657 440.976C319.684 438.045 308.038 438.953 297.653 443.55" fill="#E0E0E0"/>
<path d="M295.067 414.945C295.067 414.945 288.485 458.658 319.061 457.298C347.717 455.987 337.675 413.391 337.675 413.391L295.067 414.945Z" fill="#6D41A1"/>
<path d="M332.866 445.166C335.273 446.751 338.028 447.729 340.896 448.017C343.763 448.304 346.658 447.893 349.332 446.818C351.987 445.694 354.316 443.918 356.103 441.656C357.89 439.393 359.077 436.717 359.556 433.873C359.975 431.021 359.64 428.108 358.586 425.424C357.532 422.74 355.794 420.379 353.545 418.574C351.253 416.824 348.531 415.727 345.666 415.4C342.801 415.073 339.901 415.528 337.274 416.716L336.837 421.707C338.475 420.964 340.284 420.679 342.072 420.882C343.859 421.085 345.558 421.769 346.988 422.86C348.391 423.989 349.475 425.464 350.133 427.14C350.791 428.816 351 430.635 350.74 432.416C350.437 434.191 349.694 435.861 348.578 437.274C347.462 438.687 346.009 439.797 344.353 440.503C342.684 441.169 340.879 441.423 339.091 441.244C337.302 441.064 335.584 440.456 334.08 439.471L332.866 445.166Z" fill="#6D41A1"/>
<path d="M337.675 413.389C337.797 416.097 328.35 418.732 316.571 419.278C304.793 419.825 295.127 418.064 295.006 415.356C294.885 412.648 304.332 410.001 316.11 409.455C327.888 408.908 337.554 410.669 337.675 413.389Z" fill="#AC96C6"/>
<g opacity="0.2">
<path d="M338.95 421.051C337.702 421.504 336.609 422.303 335.798 423.354C334.988 424.406 334.493 425.666 334.372 426.989C334.27 429.662 334.891 432.313 336.169 434.663C336.521 435.391 337.129 436.229 337.93 436.083C338.731 435.938 338.974 434.978 339.059 434.201C339.681 429.902 339.64 425.532 338.938 421.245" fill="black"/>
</g>
<path d="M331.191 417.287C341.111 414.64 310.548 415.733 300.689 418.501C300.652 418.489 316.887 421.1 331.191 417.287Z" fill="#E3CD95"/>
</svg>
