<svg width="58" height="36" viewBox="0 0 58 36" fill="none" xmlns="http://www.w3.org/2000/svg">
<path d="M17.7452 0C13.0286 0.0152641 8.51083 1.90159 5.1838 5.24481C1.85676 8.58804 -0.00760871 13.1149 2.334e-05 17.8315C0.00765539 22.5481 1.88667 27.0689 5.2245 30.4013C8.56234 33.7338 13.0862 35.6055 17.8028 35.6055C22.5194 35.6055 27.0432 33.7338 30.3811 30.4013C33.7189 27.0689 35.5979 22.5481 35.6055 17.8315C35.6132 13.1149 33.7488 8.58804 30.4218 5.24481C27.0947 1.90159 22.577 0.0152641 17.8604 0L17.7452 0Z" fill="#EB001B"/>
<path d="M39.753 0C35.0364 0.0152641 30.5186 1.90159 27.1916 5.24481C23.8646 8.58804 22.0002 13.1149 22.0078 17.8315C22.0155 22.5481 23.8945 27.0689 27.2323 30.4013C30.5702 33.7338 35.094 35.6055 39.8106 35.6055C44.5272 35.6055 49.051 33.7338 52.3889 30.4013C55.7267 27.0689 57.6057 22.5481 57.6133 17.8315C57.621 13.1149 55.7566 8.58804 52.4296 5.24481C49.1025 1.90159 44.5848 0.0152641 39.8682 0L39.753 0Z" fill="#F79E1B"/>
<path d="M28.8059 3.80225C26.6852 5.46801 24.9706 7.59377 23.7916 10.0191C22.6126 12.4444 22 15.1058 22 17.8025C22 20.4992 22.6126 23.1606 23.7916 25.5859C24.9706 28.0112 26.6852 30.137 28.8059 31.8027C30.9266 30.137 32.6411 28.0112 33.8201 25.5859C34.9991 23.1606 35.6117 20.4992 35.6117 17.8025C35.6117 15.1058 34.9991 12.4444 33.8201 10.0191C32.6411 7.59377 30.9266 5.46801 28.8059 3.80225Z" fill="#FF5F00"/>
</svg>
