<svg width="25" height="25" viewBox="0 0 25 25" fill="none" xmlns="http://www.w3.org/2000/svg">
<path d="M5 15C2.2425 15 0 17.2425 0 20C0 22.7575 2.2425 25 5 25C6.32125 24.9988 7.58746 24.475 8.52371 23.5425C9.45996 22.61 9.98998 21.3463 9.99748 20.025H10V17.5H15V20.0488H15.005C15.0188 21.365 15.55 22.6238 16.485 23.55C17.42 24.4775 18.6838 24.9975 20 25C22.7575 25 25 22.7575 25 20C25 17.2425 22.7575 15 20 15H17.5V10H20C22.7575 10 25 7.7575 25 5C25 2.2425 22.7575 0 20 0C17.2425 0 15 2.2425 15 5V7.5H10V4.97498H9.99748C9.98998 3.65373 9.45996 2.39002 8.52371 1.45752C7.58746 0.52502 6.32125 0.00125 5 0C2.2425 0 0 2.2425 0 5C0 7.7575 2.2425 10 5 10H7.5V15H5ZM7.5 20C7.5 21.4025 6.40125 22.5 5 22.5C3.59875 22.5 2.5 21.4025 2.5 20C2.5 18.5975 3.59875 17.5 5 17.5H7.5V20ZM20 17.5C21.4013 17.5 22.5 18.5975 22.5 20C22.5 21.4025 21.4013 22.5 20 22.5C18.5987 22.5 17.5 21.4025 17.5 20V17.5H20ZM17.5 5C17.5 3.5975 18.5987 2.5 20 2.5C21.4013 2.5 22.5 3.5975 22.5 5C22.5 6.4025 21.4013 7.5 20 7.5H17.5V5ZM5 7.5C3.59875 7.5 2.5 6.4025 2.5 5C2.5 3.5975 3.59875 2.5 5 2.5C6.40125 2.5 7.5 3.5975 7.5 5V7.5H5ZM10 10H15V15H10V10Z" fill="white"/>
</svg>
