<svg width="26" height="27" viewBox="0 0 26 27" fill="none" xmlns="http://www.w3.org/2000/svg">
<path d="M21.8947 1.8C19.6314 1.8 17.7895 3.555 17.7895 5.7C17.7895 6.35 17.9756 6.96102 18.2739 7.50702L16.7467 9.19692C15.8435 8.61192 14.7762 8.3 13.6842 8.3C12.6729 8.3 11.7342 8.58593 10.92 9.04093L8.98502 7.19503C9.36955 6.54503 9.57347 5.804 9.57895 5.05C9.57895 2.541 7.43053 0.5 4.78947 0.5C2.14842 0.5 0 2.541 0 5.05C0 7.559 2.14842 9.6 4.78947 9.6C5.6119 9.6 6.37407 9.37893 7.05007 9.04093L8.98502 10.874C8.48418 11.667 8.216 12.577 8.21053 13.5C8.21053 14.8 8.73051 15.97 9.5584 16.88L7.24309 19.077L7.27725 19.1159C6.71757 18.8429 6.10042 18.7 5.47368 18.7C3.21032 18.7 1.36842 20.455 1.36842 22.6C1.36842 24.745 3.21032 26.5 5.47368 26.5C7.73705 26.5 9.57895 24.745 9.57895 22.6C9.57895 21.976 9.41338 21.4041 9.1438 20.8841L9.17796 20.9229L11.8519 18.375C12.428 18.57 13.0383 18.7 13.6842 18.7C16.7029 18.7 19.1579 16.373 19.1579 13.5C19.1524 12.694 18.9458 11.901 18.5571 11.186L20.2718 9.275C20.7699 9.483 21.3173 9.6 21.8947 9.6C24.1581 9.6 26 7.845 26 5.7C26 3.555 24.1581 1.8 21.8947 1.8ZM5.47368 23.9C5.11105 23.9 4.76215 23.7569 4.50625 23.5229C4.24899 23.2759 4.10526 22.951 4.10526 22.6C4.10526 22.249 4.24899 21.924 4.50625 21.677C4.76215 21.4431 5.11105 21.3 5.47368 21.3C5.83632 21.3 6.18522 21.4431 6.44112 21.677C6.69838 21.924 6.84211 22.249 6.84211 22.6C6.84211 22.951 6.69838 23.2759 6.44112 23.5229C6.18522 23.7569 5.83632 23.9 5.47368 23.9ZM2.73684 5.05C2.73684 3.971 3.65779 3.1 4.78947 3.1C5.92116 3.1 6.84211 3.971 6.84211 5.05C6.84211 6.129 5.92116 7 4.78947 7C3.65779 7 2.73684 6.129 2.73684 5.05ZM13.6842 16.1C12.1748 16.1 10.9474 14.93 10.9474 13.5C10.9474 12.07 12.1748 10.9 13.6842 10.9C15.1936 10.9 16.4211 12.07 16.4211 13.5C16.4211 14.93 15.1936 16.1 13.6842 16.1ZM21.8947 7C21.5321 7 21.1832 6.85695 20.9273 6.62295C20.67 6.37595 20.5263 6.051 20.5263 5.7C20.5263 5.349 20.67 5.02405 20.9273 4.77705C21.1832 4.54305 21.5321 4.4 21.8947 4.4C22.2574 4.4 22.6063 4.54305 22.8622 4.77705C23.1194 5.02405 23.2632 5.349 23.2632 5.7C23.2632 6.051 23.1194 6.37595 22.8622 6.62295C22.6063 6.85695 22.2574 7 21.8947 7Z" fill="#6D41A1"/>
</svg>
