<svg width="12" height="12" viewBox="0 0 12 12" fill="none" xmlns="http://www.w3.org/2000/svg">
<path d="M11.4 1.79988C11.7314 1.46853 11.7314 0.931308 11.4 0.59996C11.0687 0.268611 10.5315 0.268611 10.2001 0.59996L6 4.80008L1.79988 0.599959C1.46853 0.268611 0.931308 0.268611 0.59996 0.59996C0.268611 0.931308 0.268611 1.46853 0.59996 1.79988L4.80008 6L0.599959 10.2001C0.268611 10.5315 0.268611 11.0687 0.59996 11.4C0.931308 11.7314 1.46853 11.7314 1.79988 11.4L6 7.19992L10.2001 11.4C10.5315 11.7314 11.0687 11.7314 11.4 11.4C11.7314 11.0687 11.7314 10.5315 11.4 10.2001L7.19992 6L11.4 1.79988Z" fill="#6D41A1"/>
</svg>
