<svg width="61" height="48" viewBox="0 0 61 48" fill="none" xmlns="http://www.w3.org/2000/svg">
<path fill-rule="evenodd" clip-rule="evenodd" d="M61 32C61 34.2091 59.1793 36 56.9333 36H4.06667C1.82071 36 0 34.2091 0 32V4C0 1.79086 1.82071 0 4.06667 0H56.9333C59.1793 0 61 1.79086 61 4V32ZM4.06667 32H56.9333V4H4.06667V32Z" fill="#6D41A1"/>
<path fill-rule="evenodd" clip-rule="evenodd" d="M4.06667 40C4.06667 38.8954 4.97702 38 6.1 38H54.9C56.023 38 56.9333 38.8954 56.9333 40C56.9333 41.1046 56.023 42 54.9 42H6.1C4.97702 42 4.06667 41.1046 4.06667 40ZM8.13334 46C8.13334 44.8954 9.04369 44 10.1667 44H50.8333C51.9563 44 52.8667 44.8954 52.8667 46C52.8667 47.1046 51.9563 48 50.8333 48H10.1667C9.04369 48 8.13334 47.1046 8.13334 46Z" fill="#6D41A1"/>
<path fill-rule="evenodd" clip-rule="evenodd" d="M30.5 10C26.0081 10 22.3667 13.5817 22.3667 18C22.3667 22.4183 26.0081 26 30.5 26C34.9919 26 38.6333 22.4183 38.6333 18C38.6333 13.5817 34.9919 10 30.5 10ZM18.3 18C18.3 11.3726 23.7621 6 30.5 6C37.2379 6 42.7 11.3726 42.7 18C42.7 24.6274 37.2379 30 30.5 30C23.7621 30 18.3 24.6274 18.3 18Z" fill="#6D41A1"/>
<path fill-rule="evenodd" clip-rule="evenodd" d="M12.2 1.24845e-06C13.323 1.24845e-06 14.2333 0.895432 14.2333 2C14.2333 3.57586 13.9178 5.1363 13.3047 6.5922C12.6916 8.04811 11.7929 9.37098 10.66 10.4853C9.52716 11.5996 8.18225 12.4835 6.70207 13.0866C5.2219 13.6896 3.63546 14 2.03334 14C0.910357 14 2.11542e-06 13.1046 2.11542e-06 12C2.11542e-06 10.8954 0.910357 10 2.03334 10C3.10142 10 4.15905 9.79308 5.14583 9.39104C6.13261 8.989 7.02922 8.39972 7.78447 7.65686C8.53972 6.91399 9.13882 6.03207 9.54756 5.06147C9.95629 4.09086 10.1667 3.05058 10.1667 2C10.1667 0.895432 11.077 1.24845e-06 12.2 1.24845e-06ZM48.8 1.24845e-06C49.923 1.24845e-06 50.8333 0.895432 50.8333 2C50.8333 4.12173 51.6902 6.15656 53.2155 7.65686C54.7408 9.15715 56.8096 10 58.9667 10C60.0896 10 61 10.8954 61 12C61 13.1046 60.0896 14 58.9667 14C55.731 14 52.6279 12.7357 50.34 10.4853C48.052 8.23485 46.7667 5.1826 46.7667 2C46.7667 0.895432 47.677 1.24845e-06 48.8 1.24845e-06ZM2.11542e-06 24C2.11542e-06 22.8954 0.910357 22 2.03334 22C3.63546 22 5.2219 22.3104 6.70207 22.9134C8.18225 23.5165 9.52716 24.4004 10.66 25.5147C11.7929 26.629 12.6916 27.9519 13.3047 29.4078C13.9178 30.8637 14.2333 32.4241 14.2333 34C14.2333 35.1046 13.323 36 12.2 36C11.077 36 10.1667 35.1046 10.1667 34C10.1667 32.9494 9.95629 31.9091 9.54756 30.9385C9.13882 29.9679 8.53972 29.086 7.78447 28.3431C7.02922 27.6003 6.13261 27.011 5.14583 26.609C4.15905 26.2069 3.10142 26 2.03334 26C0.910357 26 2.11542e-06 25.1046 2.11542e-06 24ZM50.34 25.5147C52.6279 23.2643 55.731 22 58.9667 22C60.0896 22 61 22.8954 61 24C61 25.1046 60.0896 26 58.9667 26C56.8096 26 54.7408 26.8429 53.2155 28.3431C51.6902 29.8434 50.8333 31.8783 50.8333 34C50.8333 35.1046 49.923 36 48.8 36C47.677 36 46.7667 35.1046 46.7667 34C46.7667 30.8174 48.052 27.7652 50.34 25.5147Z" fill="#6D41A1"/>
</svg>
