<svg width="33" height="33" viewBox="0 0 33 33" fill="none" xmlns="http://www.w3.org/2000/svg">
<path d="M16.5 0C7.425 0 0 7.425 0 16.5C0 25.575 7.425 33 16.5 33C25.575 33 33 25.575 33 16.5C33 7.425 25.575 0 16.5 0ZM16.5 3.66667C19.3417 3.66667 22 4.675 24.2 6.23333L6.23333 24.2C4.675 22 3.66667 19.3417 3.66667 16.5C3.66667 9.44167 9.44167 3.66667 16.5 3.66667ZM16.5 29.3333C13.6583 29.3333 11 28.325 8.8 26.7667L26.7667 8.8C28.325 11 29.3333 13.6583 29.3333 16.5C29.3333 23.5583 23.5583 29.3333 16.5 29.3333Z" fill="#B6B6B6"/>
</svg>
