<svg width="23" height="29" viewBox="0 0 23 29" fill="none" xmlns="http://www.w3.org/2000/svg">
<path d="M14.1416 11.9784L14.2615 11.3908H15.0825H20.936H21.8257L21.9292 10.5071C21.9723 10.1397 22 9.82578 22 9.59898C22 7.84815 21.3127 6.40435 19.9351 5.38478C18.8563 4.57165 17.4693 4.07319 15.8325 3.83495L16.0626 2.69846L16.3053 1.5H15.0825H13.0673H12.2495L12.0872 2.30154L11.7903 3.76799C9.68922 3.96585 7.81223 4.55199 6.1829 5.54973C4.32533 6.66881 3.127 8.21193 2.71856 10.1759C2.61743 10.6122 2.56734 11.0575 2.56734 11.5102C2.56734 12.7576 2.96832 13.8511 3.83164 14.6863L3.83752 14.692L3.8435 14.6976C4.60317 15.4088 5.46893 15.9381 6.43548 16.2766L6.43547 16.2766L6.44287 16.2791C7.13915 16.5169 8.00809 16.761 9.04321 17.0125L8.94768 17.4727H7.88552H2.06397H1.25454L1.08591 18.2644C1.02071 18.5705 1 18.9563 1 19.3737C1 21.1356 1.74314 22.576 3.17822 23.6006L3.17819 23.6006L3.18668 23.6065C4.30855 24.3901 5.71605 24.8837 7.36349 25.1308L7.12885 26.3039L6.88961 27.5H8.10943H10.1246H10.9424L11.1047 26.6985L11.3994 25.243C12.8293 25.128 14.1446 24.8306 15.3359 24.3391L15.3359 24.3391L15.3416 24.3367C16.7428 23.7485 17.9131 22.9847 18.817 22.0254L18.8171 22.0254L18.8243 22.0175C19.7214 21.0449 20.311 19.9519 20.5427 18.7429L20.5449 18.7313L20.5469 18.7197C20.6314 18.2145 20.6886 17.7835 20.6886 17.4898C20.6886 16.2381 20.2732 15.1472 19.3814 14.3305C18.6408 13.6171 17.7828 13.096 16.8153 12.7762C16.1389 12.5337 15.2446 12.2679 14.1416 11.9784ZM12.7676 18.7015L12.8333 18.385C12.8347 18.3964 12.835 18.4074 12.835 18.4181C12.835 18.4361 12.8346 18.4506 12.8341 18.4617C12.834 18.465 12.8338 18.4679 12.8336 18.4705L12.8323 18.4751L12.8242 18.5137C12.8108 18.578 12.7922 18.6406 12.7676 18.7015Z" stroke="#6D41A1" stroke-width="2"/>
</svg>
