<svg width="12" height="17" viewBox="0 0 12 17" fill="none" xmlns="http://www.w3.org/2000/svg">
<path d="M10.8559 10.0822C10.7584 9.76157 10.6093 9.46077 10.409 9.17982C10.2083 8.89917 9.95909 8.64993 9.66115 8.43213C9.36306 8.21457 9.01362 8.04273 8.61262 7.91651C8.4519 7.87087 8.16921 7.79912 7.79686 7.70162C7.53074 7.63218 7.28124 7.56099 6.99999 7.48844V3.94861C7.28124 4.02883 7.47661 4.15626 7.68518 4.29782C7.92507 4.46054 8.11685 4.68544 8.25566 4.96788C8.4795 5.42333 8.87585 5.82143 9.38334 5.82143H9.62036C10.1859 5.82143 10.6605 5.34305 10.4936 4.80269C10.437 4.6196 10.3658 4.44658 10.28 4.28058C10.0278 3.79365 9.68693 3.37576 9.25715 3.04321C8.82746 2.711 8.31262 2.45761 7.74537 2.29137C7.49899 2.21929 7.28127 2.15865 7.00002 2.11783V2C7.00002 1.44772 6.5523 1 6.00002 1V1C5.44773 1 5.00001 1.44772 5.00001 2V2.1105C4.78126 2.14546 4.52664 2.19237 4.2992 2.2528C3.76038 2.39621 3.28707 2.61669 2.86322 2.91454C2.43913 3.2127 2.10222 3.58794 1.84435 4.04045C1.5865 4.49323 1.4596 5.02884 1.4596 5.64759C1.4596 5.96852 1.50356 6.28352 1.5895 6.59296C1.6755 6.90237 1.82207 7.19453 2.02832 7.46955C2.23466 7.74458 2.51254 7.99382 2.86229 8.21728C3.21176 8.44067 3.63432 8.62121 4.16154 8.75872C4.45176 8.83723 4.74998 8.91053 4.99998 8.9789V12.9829C4.65623 12.8852 4.31595 12.7352 4.04129 12.5316C3.75473 12.3197 3.53923 12.0644 3.37885 11.7319C3.35776 11.6883 3.33822 11.6432 3.32018 11.597C3.12325 11.0918 2.71519 10.6429 2.17302 10.6429H2.03137C1.46698 10.6429 0.999583 11.1152 1.13012 11.6643C1.2009 11.962 1.29994 12.2396 1.42725 12.4968C1.70222 13.0527 2.06891 13.4999 2.52738 13.8549C2.98557 14.2102 3.50841 14.4695 4.12732 14.6414C4.40498 14.7186 4.71876 14.774 5.00001 14.8165V15C5.00001 15.5523 5.44773 16 6.00002 16V16C6.5523 16 7.00002 15.5523 7.00002 15V14.8435C7.31252 14.8077 7.59243 14.7535 7.89149 14.6802C8.4759 14.5371 9.0054 14.3107 9.46387 14.0013C9.92206 13.6919 10.2958 13.2939 10.5767 12.8066C10.8573 12.3197 11 11.7323 11 11.0448C11 10.7241 10.9531 10.4032 10.8559 10.0822ZM5.00001 6.94974C4.62501 6.82442 4.25276 6.64546 3.99842 6.41242C3.72901 6.16616 3.60238 5.82535 3.60238 5.38971C3.60238 5.0803 3.67782 4.82252 3.82126 4.61621C3.96438 4.40992 4.13101 4.24663 4.34876 4.12633C4.54189 4.01955 4.78126 3.94 5.00001 3.88733V6.94974ZM8.71571 11.9644C8.62387 12.1879 8.47512 12.3855 8.26874 12.5574C8.06243 12.7293 7.77674 12.8698 7.44446 12.9785C7.30383 13.0247 7.18749 13.0604 6.99999 13.0869V9.50061C7.31249 9.58847 7.56811 9.67914 7.82268 9.77286C8.07462 9.86473 8.3148 10.0221 8.52696 10.2455C8.73899 10.469 8.84912 10.8157 8.84912 11.2854C8.84915 11.5148 8.80734 11.741 8.71571 11.9644Z" stroke="#333333"/>
</svg>
