<svg width="46" height="26" viewBox="0 0 46 26" fill="none" xmlns="http://www.w3.org/2000/svg">
<path d="M34.0937 3.43C34.4935 3.03795 34.4935 2.39411 34.0937 2.00207L32.7524 0.68664C32.3635 0.30527 31.7409 0.305263 31.352 0.686624L20.2163 11.6068C19.8165 11.9988 19.8165 12.6427 20.2163 13.0347L21.5581 14.3507C21.9469 14.7321 22.5696 14.7321 22.9585 14.3507L34.0937 3.43ZM43.9288 0.684989C43.5406 0.304278 42.9193 0.303555 42.5302 0.683361L22.2582 20.47L14.7476 13.1046C14.3587 12.7232 13.7361 12.7232 13.3473 13.1046L12.0025 14.4235C11.604 14.8143 11.6026 15.4556 11.9993 15.8482L21.558 25.3071C21.9464 25.6914 22.5715 25.6928 22.9616 25.3102L45.272 3.43002C45.6717 3.03797 45.6717 2.3941 45.2719 2.00207L43.9288 0.684989ZM0.753622 14.4207C0.342007 14.8104 0.336255 15.464 0.740947 15.8609L10.3795 25.3134C10.7683 25.6947 11.3909 25.6947 11.7798 25.3134L13.1246 23.9946C13.5231 23.6038 13.5246 22.9625 13.1279 22.5698L3.55708 13.0988C3.17353 12.7192 2.55802 12.7124 2.16618 13.0834L0.753622 14.4207Z" fill="#6D41A1"/>
</svg>
