<svg width="23" height="23" viewBox="0 0 23 23" fill="none" xmlns="http://www.w3.org/2000/svg">
<path d="M18.4769 0.210833C18.3418 0.0766487 18.1587 0 17.968 0C17.7783 0 17.5952 0.0766487 17.4601 0.210833L15.0931 2.5782L20.4213 7.90729L22.7892 5.53992C22.8563 5.47283 22.909 5.39616 22.9454 5.3099C22.9818 5.22364 23 5.12776 23 5.03191C23 4.93607 22.9818 4.84018 22.9454 4.75392C22.909 4.66766 22.8563 4.59099 22.7892 4.5239L18.4769 0.210833ZM19.4055 8.92331L14.0764 3.59422L4.73304 12.9392H5.03105C5.22175 12.9392 5.40385 13.0158 5.53897 13.15C5.67409 13.2842 5.74977 13.4664 5.74977 13.658V14.3769H6.46849C6.65919 14.3769 6.84129 14.4535 6.97641 14.5877C7.11153 14.7219 7.18721 14.904 7.18721 15.0957V15.8146H7.90593C8.09663 15.8146 8.27874 15.8912 8.41385 16.0254C8.54897 16.1596 8.62465 16.3417 8.62465 16.5334V17.2523H9.34337C9.53407 17.2523 9.71618 17.3289 9.8513 17.4631C9.98642 17.5973 10.0621 17.7794 10.0621 17.9711V18.2683L19.4055 8.92331ZM8.67062 19.658C8.63996 19.5813 8.62465 19.4951 8.62465 19.4088V18.69H7.90593C7.71523 18.69 7.53219 18.6133 7.39707 18.4791C7.26291 18.3449 7.18721 18.1628 7.18721 17.9711V17.2523H6.46849C6.27779 17.2523 6.09475 17.1756 5.95963 17.0414C5.82547 16.9072 5.74977 16.7251 5.74977 16.5334V15.8146H5.03105C4.84035 15.8146 4.65731 15.7379 4.52219 15.6037C4.38803 15.4696 4.31233 15.2874 4.31233 15.0957V14.3769H3.59361C3.50736 14.3769 3.42207 14.3577 3.34157 14.3289L3.08475 14.5877C3.01575 14.6548 2.96211 14.7411 2.92665 14.8273L0.051766 22.0158C-0.000940165 22.15 -0.0133994 22.2937 0.0143911 22.4279C0.04314 22.562 0.111137 22.6963 0.210799 22.7922C0.309504 22.888 0.436026 22.9647 0.57402 22.9838C0.712014 23.0126 0.854793 23.003 0.98608 22.9551L8.17329 20.0797C8.26337 20.0413 8.34579 19.9839 8.41479 19.9168L8.67062 19.658Z" fill="#6D41A1"/>
</svg>
