<svg width="18" height="14" viewBox="0 0 18 14" fill="none" xmlns="http://www.w3.org/2000/svg">
<path d="M17.5723 7L17.7047 7.07037L17.7421 7L17.7047 6.92963L17.5723 7ZM17.5723 7C17.7047 7.07037 17.7047 7.07044 17.7046 7.07053L17.7045 7.07083L17.704 7.07183L17.702 7.07544L17.6946 7.08905C17.6882 7.1009 17.6786 7.11825 17.666 7.14075C17.6408 7.18574 17.6033 7.25129 17.5539 7.33446C17.455 7.5008 17.3081 7.73773 17.1153 8.02175C16.7299 8.5895 16.16 9.34682 15.4219 10.1047C13.9486 11.6174 11.7871 13.15 9.07227 13.15C6.35742 13.15 4.19597 11.6174 2.72262 10.1047C1.98451 9.34682 1.41461 8.5895 1.02921 8.02175C0.83642 7.73773 0.689553 7.5008 0.590668 7.33446C0.54122 7.25129 0.503754 7.18574 0.478526 7.14075C0.465912 7.11825 0.456357 7.1009 0.449891 7.08905L0.442515 7.07544L0.440573 7.07183L0.440039 7.07083L0.439882 7.07053C0.439834 7.07044 0.439798 7.07037 0.572266 7M17.5723 7C17.7047 6.92963 17.7047 6.92956 17.7046 6.92947L17.7045 6.92917L17.704 6.92817L17.702 6.92456L17.6946 6.91095C17.6882 6.8991 17.6786 6.88175 17.666 6.85925C17.6408 6.81426 17.6033 6.74871 17.5539 6.66554C17.455 6.4992 17.3081 6.26227 17.1153 5.97825C16.7299 5.4105 16.16 4.65319 15.4219 3.89534C13.9486 2.3826 11.7871 0.85 9.07227 0.85C6.35742 0.85 4.19597 2.3826 2.72262 3.89534C1.98451 4.65319 1.41461 5.4105 1.02921 5.97825C0.83642 6.26227 0.689553 6.4992 0.590668 6.66554C0.54122 6.74871 0.503754 6.81426 0.478526 6.85925C0.465912 6.88175 0.456357 6.8991 0.449891 6.91095L0.442515 6.92456L0.440573 6.92817L0.440039 6.92917L0.439882 6.92947C0.439834 6.92956 0.439798 6.92963 0.572266 7M0.572266 7L0.439798 6.92963L0.402412 7L0.439798 7.07037L0.572266 7ZM7.30101 5.1776C6.83111 5.65801 6.56602 6.31829 6.56602 7C6.56602 7.68168 6.83108 8.34192 7.30094 8.82233L7.30101 5.1776ZM7.30101 5.1776C7.77235 4.69644 8.40909 4.42273 9.07227 4.42273M7.30101 5.1776L9.07227 4.42273M9.07227 4.42273C9.73544 4.42273 10.3722 4.69644 10.8435 5.1776L9.07227 4.42273ZM3.68945 4.87916L3.68969 4.87891C5.04477 3.48112 6.87826 2.24091 9.07227 2.24091C11.2663 2.24091 13.0991 3.4811 14.4556 4.87897L14.4559 4.87922C15.0855 5.525 15.6521 6.23822 16.148 6.99941C16.1156 7.04862 16.0813 7.10022 16.0447 7.1553C16.0288 7.17922 16.0125 7.2038 15.9957 7.22912C15.6429 7.74757 15.1229 8.43804 14.456 9.12067L14.4556 9.12103C13.0991 10.5189 11.2648 11.7591 9.07227 11.7591C6.87829 11.7591 5.04617 10.5189 3.68887 9.12101L3.68866 9.12078C3.05894 8.47493 2.49349 7.76154 1.9969 7C2.49352 6.23856 3.0603 5.52513 3.68945 4.87916ZM9.07227 9.57727C8.40909 9.57727 7.77235 9.30356 7.30101 8.8224L10.8436 5.17767C11.3134 5.65808 11.5785 6.31832 11.5785 7C11.5785 7.68168 11.3134 8.34192 10.8436 8.82233C10.3722 9.30353 9.73547 9.57727 9.07227 9.57727ZM6.33547 4.19722C5.60989 4.93857 5.20352 5.95088 5.20352 7C5.20352 8.04911 5.60989 9.06142 6.33545 9.80277C7.06051 10.5516 8.04552 10.9682 9.07227 10.9682C10.099 10.9682 11.084 10.5516 11.8091 9.80278C12.5346 9.06143 12.941 8.04912 12.941 7C12.941 5.9509 12.5346 4.9386 11.8091 4.19725C11.084 3.44841 10.099 3.03182 9.07227 3.03182C8.04553 3.03182 7.06052 3.4484 6.33547 4.19722Z" fill="#9D9D9D" stroke="#9D9D9D" stroke-width="0.3"/>
</svg>
