<svg width="23" height="16" viewBox="0 0 23 16" fill="none" xmlns="http://www.w3.org/2000/svg">
<path d="M11.7816 0.734375C6.78721 0.734375 2.53855 3.71872 0.791992 7.95611C2.53855 12.1935 6.78721 15.1778 11.7816 15.1778C16.776 15.1778 21.0246 12.1935 22.7712 7.95611C21.0246 3.71872 16.776 0.734375 11.7816 0.734375ZM11.7816 12.7722C9.03419 12.7722 6.78721 10.6057 6.78721 7.95611C6.78721 5.30655 9.03419 3.14003 11.7816 3.14003C14.529 3.14003 16.776 5.30655 16.776 7.95611C16.776 10.6057 14.529 12.7722 11.7816 12.7722ZM11.7816 5.06742C10.1331 5.06742 8.78398 6.36828 8.78398 7.95611C8.78398 9.54393 10.1331 10.8448 11.7816 10.8448C13.43 10.8448 14.7792 9.54393 14.7792 7.95611C14.7792 6.36828 13.43 5.06742 11.7816 5.06742Z" fill="#6D41A1"/>
</svg>
