<svg width="45" height="48" viewBox="0 0 45 48" fill="none" xmlns="http://www.w3.org/2000/svg">
<path fill-rule="evenodd" clip-rule="evenodd" d="M3 13.5C3 14.09 3.11984 14.676 3.33984 15.222C3.55984 15.768 3.89982 16.264 4.31982 16.682C4.73982 17.1 5.23979 17.432 5.77979 17.658C6.31979 17.884 6.9 18 7.5 18C8.1 18 8.68021 17.884 9.22021 17.658C9.76021 17.432 10.2602 17.1 10.6802 16.682C11.1002 16.264 11.4402 15.768 11.6602 15.222C11.8802 14.676 12 14.09 12 13.5C12 12.306 11.5202 11.162 10.6802 10.318C9.84017 9.47399 8.7 9 7.5 9C6.3 9 5.15982 9.47399 4.31982 10.318C3.47982 11.162 3 12.306 3 13.5ZM6 20.85C4.3 20.506 2.78018 19.586 1.68018 18.246C0.600176 16.906 0 15.23 0 13.5C0 11.77 0.600176 10.094 1.68018 8.754C2.78018 7.414 4.3 6.494 6 6.14999V1.5C6 0.671574 6.67157 0 7.5 0C8.32843 0 9 0.671574 9 1.5L9 6.14999C10.7 6.494 12.2198 7.414 13.3198 8.754C14.3998 10.094 15 11.77 15 13.5C15 15.23 14.3998 16.906 13.3198 18.246C12.2198 19.586 10.7 20.506 9 20.85L9 46.5C9 47.3284 8.32843 48 7.5 48C6.67157 48 6 47.3284 6 46.5L6 20.85ZM18 34.5C18 35.694 18.4798 36.838 19.3198 37.682C20.1598 38.526 21.3 39 22.5 39C23.7 39 24.8402 38.526 25.6802 37.682C26.5202 36.838 27 35.694 27 34.5C27 33.306 26.5202 32.162 25.6802 31.318C24.8402 30.474 23.7 30 22.5 30C21.3 30 20.1598 30.474 19.3198 31.318C18.4798 32.162 18 33.306 18 34.5ZM21 41.85C19.3 41.506 17.7802 40.586 16.6802 39.246C15.6002 37.906 15 36.23 15 34.5C15 32.77 15.6002 31.094 16.6802 29.754C17.7802 28.414 19.3 27.494 21 27.15L21 1.5C21 0.67157 21.6716 0 22.5 0C23.3284 0 24 0.671574 24 1.5L24 27.15C25.7 27.494 27.2198 28.414 28.3198 29.754C29.3998 31.094 30 32.77 30 34.5C30 36.23 29.3998 37.906 28.3198 39.246C27.2198 40.586 25.7 41.506 24 41.85V46.5C24 47.3284 23.3284 48 22.5 48C21.6716 48 21 47.3284 21 46.5V41.85ZM33 13.5C33 14.694 33.4798 15.838 34.3198 16.682C35.1598 17.526 36.3 18 37.5 18C38.7 18 39.8402 17.526 40.6802 16.682C41.5202 15.838 42 14.694 42 13.5C42 12.306 41.5202 11.162 40.6802 10.318C39.8402 9.47399 38.7 9 37.5 9C36.3 9 35.1598 9.47399 34.3198 10.318C33.4798 11.162 33 12.306 33 13.5ZM36 20.85C34.3 20.506 32.7802 19.586 31.6802 18.246C30.6002 16.906 30 15.23 30 13.5C30 11.77 30.6002 10.094 31.6802 8.754C32.7802 7.414 34.3 6.494 36 6.14999V1.5C36 0.671574 36.6716 0 37.5 0C38.3284 0 39 0.671574 39 1.5V6.14999C40.7 6.494 42.2198 7.414 43.3198 8.754C44.3998 10.094 45 11.77 45 13.5C45 15.23 44.3998 16.906 43.3198 18.246C42.2198 19.586 40.7 20.506 39 20.85V46.5C39 47.3284 38.3284 48 37.5 48C36.6716 48 36 47.3284 36 46.5V20.85Z" fill="#B1B1B1"/>
</svg>
