<svg width="30" height="36" viewBox="0 0 30 36" fill="none" xmlns="http://www.w3.org/2000/svg">
<path d="M0 4.50005C0 3.30604 0.526714 2.16152 1.46505 1.31851C2.40171 0.474002 3.67333 0 5 0H25C26.3267 0 27.5983 0.474002 28.535 1.31851C29.4733 2.16152 30 3.30604 30 4.50005V34.8754C30 35.0794 29.9383 35.2789 29.8217 35.4529C29.7067 35.6284 29.54 35.7709 29.34 35.8669C29.14 35.9629 28.9166 36.0079 28.69 35.9989C28.465 35.9884 28.245 35.9239 28.0566 35.8114L15 29.4768L1.94163 35.8114C1.75496 35.9239 1.53502 35.9884 1.31002 35.9989C1.08335 36.0079 0.859993 35.9629 0.659993 35.8669C0.459993 35.7709 0.293324 35.6284 0.178324 35.4529C0.0616577 35.2789 0 35.0794 0 34.8754V4.50005ZM5 2.25002C4.33667 2.25002 3.70171 2.48702 3.23171 2.90852C2.76338 3.33153 2.5 3.90304 2.5 4.50005V32.7738L14.3084 27.1893C14.5134 27.0663 14.7533 27.0003 15 27.0003C15.2467 27.0003 15.4867 27.0663 15.6934 27.1893L27.5 32.7738V4.50005C27.5 3.90304 27.2366 3.33153 26.7683 2.90852C26.2983 2.48702 25.6633 2.25002 25 2.25002H5Z" fill="#B6B6B6"/>
</svg>
