<svg width="38" height="35" viewBox="0 0 38 35" fill="none" xmlns="http://www.w3.org/2000/svg">
<path d="M27.55 0C24.225 0 21.0918 1.52214 19 4.0013C16.9082 1.52214 13.775 0 10.45 0C4.55817 0 0 4.57552 0 10.4909C0 17.737 6.45817 23.5521 16.2413 32.5208L19 35L21.7587 32.5208C31.5418 23.5521 38 17.737 38 10.4909C38 4.57552 33.4418 0 27.55 0ZM20.1692 30.0143L19.7856 30.3698L19 31.0807L18.2144 30.3698L17.8308 30.0143C13.2269 25.7943 9.24423 22.1484 6.6226 18.8945C4.0649 15.7318 2.93221 13.1432 2.93221 10.4909C2.93221 8.40365 3.69952 6.48958 5.09712 5.08594C6.48558 3.68229 8.38558 2.91667 10.45 2.91667C12.8341 2.91667 15.2 4.02865 16.762 5.87891L19 8.53125L21.238 5.87891C22.8 4.01953 25.1659 2.91667 27.55 2.91667C29.6144 2.91667 31.5144 3.68229 32.912 5.08594C34.3096 6.48958 35.0769 8.41276 35.0769 10.4909C35.0769 13.1341 33.9351 15.7318 31.3865 18.8945C28.7558 22.1484 24.7822 25.7943 20.1692 30.0143Z" fill="#D8B7FF"/>
</svg>
