<svg width="36" height="40" viewBox="0 0 36 40" fill="none" xmlns="http://www.w3.org/2000/svg">
<path d="M3.99999 40H31.9999C33.0599 40 34.0779 39.578 34.8279 38.8281C35.5779 38.0781 35.9999 37.0601 35.9999 36.0002V18.0011C36.0019 17.7371 35.952 17.4772 35.852 17.2332C35.752 16.9892 35.606 16.7691 35.42 16.5811L19.42 0.581881C19.046 0.209899 18.538 0 18.01 0C17.482 0 16.9739 0.209899 16.5999 0.581881L0.599975 16.5811C0.411975 16.7671 0.259959 16.9871 0.157959 17.2311C0.0539589 17.4751 0.002 17.7371 0 18.0011V36.0002C0 37.0601 0.421996 38.0781 1.172 38.8281C1.92199 39.578 2.94 40 3.99999 40ZM14 36.0002V26.0007H22V36.0002H14ZM3.99999 18.821L18 4.82166L31.9999 18.821V36.0002H26V26.0007C26 24.9407 25.578 23.9228 24.828 23.1728C24.078 22.4229 23.06 22.0009 22 22.0009H14C12.94 22.0009 11.922 22.4229 11.172 23.1728C10.422 23.9228 9.99998 24.9407 9.99998 26.0007V36.0002H3.99999V18.821Z" fill="#F6F7F9"/>
</svg>
