<svg width="46" height="40" viewBox="0 0 46 40" fill="none" xmlns="http://www.w3.org/2000/svg">
<path fill-rule="evenodd" clip-rule="evenodd" d="M6.06326 9.09413C4.38894 9.09413 3.03163 10.4514 3.03163 12.1258V33.3472C3.03163 35.0215 4.38894 36.3788 6.06326 36.3788H39.4112C41.0855 36.3788 42.4428 35.0215 42.4428 33.3472V12.1258C42.4428 10.4514 41.0855 9.09413 39.4112 9.09413H6.06326ZM0 12.1258C0 8.77711 2.71461 6.0625 6.06326 6.0625H39.4112C42.7598 6.0625 45.4745 8.77711 45.4745 12.1258V33.3472C45.4745 36.6958 42.7598 39.4104 39.4112 39.4104H6.06326C2.71461 39.4104 0 36.6958 0 33.3472V12.1258Z" fill="#D8B7FF"/>
<path fill-rule="evenodd" clip-rule="evenodd" d="M15.1582 3.03163C14.7561 3.03163 14.3706 3.19133 14.0863 3.4756C13.802 3.75987 13.6423 4.14543 13.6423 4.54745V7.57908C13.6423 8.41624 12.9637 9.09489 12.1265 9.09489C11.2894 9.09489 10.6107 8.41624 10.6107 7.57908V4.54745C10.6107 3.34139 11.0898 2.18473 11.9426 1.33192C12.7954 0.479104 13.9521 0 15.1582 0H30.3163C31.5224 0 32.679 0.479104 33.5318 1.33192C34.3846 2.18473 34.8638 3.34139 34.8638 4.54745V7.57908C34.8638 8.41624 34.1851 9.09489 33.3479 9.09489C32.5108 9.09489 31.8321 8.41624 31.8321 7.57908V4.54745C31.8321 4.14543 31.6724 3.75987 31.3881 3.4756C31.1039 3.19133 30.7183 3.03163 30.3163 3.03163H15.1582ZM0 18.1898C0 17.3526 0.678654 16.674 1.51582 16.674H43.9586C44.7958 16.674 45.4745 17.3526 45.4745 18.1898C45.4745 19.0269 44.7958 19.7056 43.9586 19.7056H30.3163V20.4635C30.3163 21.0665 30.0768 21.6449 29.6503 22.0713C29.2239 22.4977 28.6456 22.7372 28.0426 22.7372H17.4319C16.8288 22.7372 16.2505 22.4977 15.8241 22.0713C15.3977 21.6449 15.1582 21.0665 15.1582 20.4635V19.7056H1.51582C0.678654 19.7056 0 19.0269 0 18.1898Z" fill="#D8B7FF"/>
</svg>
