<svg width="30" height="30" viewBox="0 0 30 30" fill="none" xmlns="http://www.w3.org/2000/svg">
<path d="M26.707 22.0323C25.7694 21.1043 24.6719 20.3363 23.4671 19.7763C25.1663 18.4003 26.2495 16.3043 26.2495 13.9364C26.2495 9.79253 22.7855 6.38475 18.6304 6.44874C14.5392 6.51274 11.2433 9.84053 11.2433 13.9364C11.2433 16.3043 12.3296 18.4003 14.0256 19.7763C12.8208 20.3363 11.7232 21.1043 10.7857 22.0323C8.73768 24.0962 7.57448 26.8002 7.50088 29.6801C7.49928 29.7281 7.50572 29.76 7.52012 29.808C7.53612 29.84 7.5569 29.8719 7.5857 29.9039C7.6129 29.9359 7.6465 29.952 7.6833 29.968C7.7201 29.984 7.7601 30 7.8001 30H9.90085C10.0608 30 10.1969 29.8719 10.2001 29.6959C10.2721 27.536 11.152 25.4881 12.7008 23.9521C13.4944 23.1522 14.4368 22.5121 15.4752 22.0961C16.5136 21.6641 17.6256 21.4403 18.7503 21.4403C21.0335 21.4403 23.1823 22.3362 24.7983 23.9521C26.3438 25.4881 27.2254 27.536 27.3006 29.6959C27.3038 29.8719 27.4382 30 27.5998 30H29.7006C29.7406 30 29.779 29.984 29.8158 29.968C29.8526 29.952 29.8862 29.9359 29.915 29.9039C29.9422 29.8719 29.9646 29.84 29.979 29.808C29.9934 29.76 30.0014 29.7281 29.9998 29.6801C29.9246 26.8002 28.763 24.0962 26.707 22.0323ZM18.7503 18.7363C17.4672 18.7363 16.2608 18.2403 15.3568 17.3283C14.9024 16.8803 14.544 16.3524 14.3024 15.7604C14.0608 15.1684 13.9408 14.5285 13.9504 13.8886C13.9616 12.6566 14.4528 11.4725 15.312 10.5926C16.2112 9.66459 17.4143 9.15255 18.7007 9.13655C19.9727 9.13655 21.2063 9.63252 22.1135 10.5125C23.0431 11.4245 23.5535 12.6404 23.5535 13.9364C23.5535 15.2324 23.0543 16.4323 22.1471 17.3283C21.7023 17.7763 21.1727 18.1443 20.5903 18.3843C20.0063 18.6243 19.3807 18.7363 18.7503 18.7363ZM9.35686 14.9284C9.32326 14.6084 9.30408 14.2724 9.30408 13.9364C9.30408 13.3444 9.36005 12.7685 9.46565 12.1925C9.49125 12.0645 9.42087 11.9206 9.29607 11.8726C8.78568 11.6326 8.3169 11.3285 7.91211 10.9285C7.43531 10.4645 7.05933 9.90449 6.80973 9.29651C6.56013 8.67253 6.44171 8.01659 6.46091 7.34461C6.49451 6.14465 6.97932 5.00868 7.82251 4.14471C8.7489 3.18474 9.99366 2.67289 11.3168 2.68889C12.5136 2.70489 13.6688 3.16878 14.5424 3.98475C14.8384 4.25675 15.0944 4.56065 15.3072 4.89664C15.3824 5.00864 15.5296 5.05675 15.656 5.00875C16.3168 4.78475 17.0144 4.6247 17.7296 4.5447C17.9408 4.5287 18.0608 4.30467 17.9664 4.11268C16.7472 1.69675 14.2576 0.032886 11.3776 0.000886898C7.21929 -0.0631112 3.75376 3.34487 3.75376 7.48875C3.75376 9.84068 4.83692 11.9364 6.5361 13.3124C5.34412 13.8724 4.24497 14.6404 3.29298 15.5844C1.23701 17.6323 0.0754009 20.3363 0.000201873 23.2322C-0.00139811 23.2802 0.00660257 23.3121 0.0210024 23.3441C0.0354022 23.3921 0.0578156 23.4242 0.0850152 23.4562C0.113815 23.4882 0.147384 23.5041 0.184184 23.5201C0.220983 23.5361 0.26098 23.5361 0.300979 23.5361H2.40339C2.56499 23.5361 2.70097 23.4082 2.70417 23.2482C2.77457 21.0723 3.65614 19.0402 5.20492 17.5043C6.3073 16.4003 7.6577 15.6325 9.13128 15.2645C9.27688 15.2165 9.37446 15.0884 9.35686 14.9284Z" fill="#B6B6B6"/>
</svg>
