<svg width="38" height="46" viewBox="0 0 38 46" fill="none" xmlns="http://www.w3.org/2000/svg">
<path d="M22.7749 39.1715C22.0879 39.1715 21.491 39.6333 21.3446 40.2932C21.232 40.7881 21.0405 41.195 20.7815 41.4919C20.6351 41.6568 20.2071 42.1407 18.9683 42.1407C17.7295 42.1407 17.3015 41.6458 17.1551 41.4919C16.8961 41.195 16.7046 40.7881 16.592 40.2932C16.4456 39.6333 15.8487 39.1715 15.1617 39.1715C14.2157 39.1715 13.5287 40.0292 13.7314 40.92C14.2945 43.3724 16.0965 45 18.9683 45C21.8401 45 23.6421 43.3834 24.2052 40.92C24.4079 40.0292 23.7096 39.1715 22.7749 39.1715ZM36.5484 33.5849C34.814 31.3524 31.4016 30.0437 31.4016 20.0472C31.4016 9.7868 26.7617 5.66283 22.437 4.67308C22.0316 4.57411 21.7388 4.44214 21.7388 4.02424V3.70532C21.7388 2.24269 20.5225 1 19.0359 1H18.9683C17.4817 1 16.2654 2.24269 16.2654 3.70532V4.02424C16.2654 4.43114 15.9726 4.57411 15.5671 4.67308C11.2312 5.67383 6.60253 9.7868 6.60253 20.0472C6.60253 30.0437 3.19011 31.3414 1.45575 33.5849C0.340808 35.0255 1.39944 37.082 3.24642 37.082H34.7915C36.6047 37.082 37.6521 35.0145 36.5484 33.5849ZM32.1562 34.2227H5.89301C5.46505 34.2227 5.23981 33.7388 5.52137 33.4199C6.30971 32.5401 7.17689 31.3854 7.8864 29.7468C8.96756 27.2614 9.49688 24.0832 9.49688 20.0472C9.49688 15.9453 10.2852 12.7341 11.8507 10.5016C13.2472 8.50012 14.9928 7.74131 16.2091 7.46638C17.1551 7.24644 17.8308 6.82854 18.3038 6.31167C18.6642 5.91577 19.2836 5.89378 19.644 6.28968C20.2184 6.91652 20.9955 7.29043 21.7613 7.46638C22.9776 7.74131 24.7232 8.50012 26.1197 10.5016C27.6851 12.7341 28.4735 15.9453 28.4735 20.0472C28.4735 24.0832 29.0028 27.2614 30.084 29.7468C30.816 31.4184 31.7057 32.5951 32.5053 33.4749C32.7531 33.7718 32.5504 34.2227 32.1562 34.2227Z" fill="#D8B7FF" stroke="#D8B7FF" stroke-width="0.3"/>
</svg>
