<svg width="32" height="32" viewBox="0 0 32 32" fill="none" xmlns="http://www.w3.org/2000/svg">
<path d="M12.7993 9.59961C11.6217 9.59961 10.666 10.5553 10.666 11.7329V20.2663C10.666 21.4439 11.6217 22.3996 12.7993 22.3996C13.9769 22.3996 14.9327 21.4439 14.9327 20.2663V11.7329C14.9327 10.5553 13.9769 9.59961 12.7993 9.59961ZM20.266 9.59961C19.0884 9.59961 18.1327 10.5553 18.1327 11.7329V20.2663C18.1327 21.4439 19.0884 22.3996 20.266 22.3996C21.4436 22.3996 22.3993 21.4439 22.3993 20.2663V11.7329C22.3993 10.5553 21.4436 9.59961 20.266 9.59961Z" fill="#B6B6B6"/>
<circle cx="16" cy="16" r="15.5" stroke="#B6B6B6"/>
</svg>
