<svg width="17" height="16" viewBox="0 0 17 16" fill="none" xmlns="http://www.w3.org/2000/svg">
<path d="M9.33375 1.21166C9.33375 0.743062 8.95388 0.36319 8.48528 0.36319C8.01668 0.36319 7.63681 0.743063 7.63681 1.21166L7.63681 7.15153L1.69694 7.15153C1.22834 7.15153 0.848471 7.5314 0.848471 8C0.848471 8.4686 1.22834 8.84847 1.69694 8.84847H7.63681L7.63681 14.7883C7.63681 15.2569 8.01668 15.6368 8.48528 15.6368C8.95388 15.6368 9.33375 15.2569 9.33375 14.7883V8.84847L15.2736 8.84847C15.7422 8.84847 16.1221 8.4686 16.1221 8C16.1221 7.5314 15.7422 7.15153 15.2736 7.15153L9.33375 7.15153L9.33375 1.21166Z" fill="#6D41A1"/>
</svg>
