<svg width="40" height="40" viewBox="0 0 40 40" fill="none" xmlns="http://www.w3.org/2000/svg">
<path fill-rule="evenodd" clip-rule="evenodd" d="M7.39674 2.80489C10.1337 0.976107 13.3515 0 16.6432 0H16.6433C21.0572 0.000280966 25.2903 1.75384 28.4114 4.87496C31.5326 7.99609 33.2861 12.2292 33.2864 16.6431V16.6432C33.2864 19.9349 32.3103 23.1527 30.4815 25.8897C28.6527 28.6266 26.0534 30.7598 23.0123 32.0195C19.9711 33.2792 16.6247 33.6088 13.3963 32.9666C10.1678 32.3244 7.20228 30.7393 4.87469 28.4117C2.5471 26.0841 0.961984 23.1186 0.319802 19.8901C-0.32238 16.6617 0.00721109 13.3153 1.2669 10.2741C2.52658 7.23298 4.65978 4.63366 7.39674 2.80489ZM16.6431 3.07691C13.96 3.07693 11.3371 3.87258 9.10618 5.36324C6.87522 6.85393 5.13639 8.97269 4.10959 11.4516C3.08279 13.9305 2.81413 16.6583 3.33759 19.2899C3.86105 21.9215 5.15311 24.3387 7.05039 26.236C8.94767 28.1333 11.365 29.4254 13.9966 29.9488C16.6282 30.4723 19.3559 30.2036 21.8348 29.1768C24.3137 28.15 26.4325 26.4112 27.9232 24.1802C29.4138 21.9493 30.2095 19.3264 30.2095 16.6433M16.6432 3.07691C20.2411 3.07716 23.6916 4.50655 26.2357 7.05067C28.7799 9.59479 30.2092 13.0453 30.2095 16.6432" fill="#B6B6B6"/>
<path fill-rule="evenodd" clip-rule="evenodd" d="M26.8246 26.8295C27.4254 26.2287 28.3995 26.2287 29.0003 26.8295L39.5493 37.3785C40.1501 37.9793 40.1501 38.9534 39.5493 39.5542C38.9485 40.155 37.9744 40.155 37.3736 39.5542L26.8246 29.0052C26.2238 28.4044 26.2238 27.4303 26.8246 26.8295Z" fill="#B6B6B6"/>
</svg>
