<svg width="18" height="20" viewBox="0 0 18 20" fill="none" xmlns="http://www.w3.org/2000/svg">
<path d="M14.7219 12.9223C13.8662 12.922 13.0445 13.2571 12.433 13.8556L6.47191 10.504C6.59441 9.9985 6.59441 9.47106 6.47191 8.96556L12.4311 5.614C12.9879 6.15553 13.7191 6.48123 14.4941 6.53279C15.269 6.58434 16.037 6.35839 16.6606 5.89539C17.2841 5.43238 17.7225 4.76255 17.8973 4.00581C18.0721 3.24907 17.9718 2.45483 17.6144 1.76528C17.257 1.07574 16.6659 0.535908 15.9468 0.242436C15.2277 -0.0510357 14.4277 -0.078987 13.6898 0.163586C12.952 0.40616 12.3247 0.903419 11.92 1.56634C11.5154 2.22926 11.3599 3.01457 11.4814 3.78166L5.3816 7.21291C4.90248 6.81372 4.31952 6.55934 3.70101 6.47956C3.08251 6.39978 2.45408 6.49791 1.88934 6.76245C1.3246 7.02699 0.846948 7.44699 0.512333 7.97325C0.177718 8.4995 0 9.11022 0 9.73384C0 10.3575 0.177718 10.9682 0.512333 11.4944C0.846948 12.0207 1.3246 12.4407 1.88934 12.7052C2.45408 12.9698 3.08251 13.0679 3.70101 12.9881C4.31952 12.9084 4.90248 12.654 5.3816 12.2548L11.4814 15.6879C11.376 16.3506 11.4763 17.0297 11.7687 17.6336C12.0612 18.2376 12.5318 18.7374 13.1171 19.0655C13.7024 19.3937 14.3743 19.5346 15.0421 19.4691C15.7099 19.4037 16.3416 19.135 16.852 18.6994C17.3625 18.2638 17.727 17.6821 17.8966 17.0329C18.0662 16.3836 18.0327 15.698 17.8006 15.0684C17.5684 14.4388 17.1488 13.8955 16.5983 13.5118C16.0479 13.128 15.3929 12.9223 14.7219 12.9223Z" fill="#BDB4B4"/>
</svg>
