<svg width="26" height="25" viewBox="0 0 26 25" fill="none" xmlns="http://www.w3.org/2000/svg">
<path d="M25.1604 8.95158L17.3657 7.8502L13.8815 1.02665C13.7859 0.836756 13.6288 0.684884 13.4362 0.596267C12.9503 0.368393 12.3609 0.558244 12.1186 1.02665L8.63442 7.8502L0.839694 8.95158C0.624884 8.9769 0.428389 9.07813 0.27776 9.21739C0.0970048 9.40728 -0.00381875 9.64786 0.000110715 9.90105C0.00273036 10.1542 0.110122 10.3948 0.297427 10.5721L5.93619 15.8764L4.60415 23.3836C4.57271 23.5608 4.59229 23.7379 4.66171 23.9025C4.73113 24.0671 4.84512 24.2064 4.99444 24.3077C5.14245 24.4216 5.31795 24.485 5.50001 24.4976C5.68339 24.5103 5.86678 24.4722 6.02789 24.3836L13.0001 20.839L19.9722 24.3836C20.1622 24.4849 20.3835 24.5103 20.5944 24.485C21.1288 24.3963 21.4877 23.9026 21.396 23.3836L20.0639 15.8764L25.7027 10.5721C25.8573 10.4201 25.9581 10.2302 25.9883 10.0276C26.0721 9.50858 25.6975 9.02754 25.1604 8.95158ZM17.6905 15.1295L18.7986 21.3706L13.0001 18.4336L7.20149 21.3706L8.3096 15.1295L3.61779 10.7113L10.1014 9.79968L13.0001 4.12819L15.8974 9.79968L22.381 10.7113L17.6905 15.1295Z" fill="#6D41A1"/>
</svg>
