<svg width="21" height="20" viewBox="0 0 21 20" fill="none" xmlns="http://www.w3.org/2000/svg">
<path d="M20.2031 6.75H13.3078L11.2125 0.496875C11.1094 0.192187 10.8234 0 10.5 0C10.1766 0 9.89062 0.192187 9.7875 0.496875L7.69219 6.75H0.75C0.3375 6.75 0 7.0875 0 7.5C0 7.54219 0.00468746 7.58906 0.0140625 7.62656C0.0234375 7.79062 0.0984375 7.97344 0.328125 8.15625L5.99531 12.15L3.82031 18.4734C3.7125 18.7781 3.82031 19.1203 4.07812 19.3172C4.21406 19.4156 4.34062 19.5 4.5 19.5C4.65469 19.5 4.8375 19.4203 4.96875 19.3312L10.5 15.3891L16.0312 19.3312C16.1625 19.425 16.3453 19.5 16.5 19.5C16.6594 19.5 16.7859 19.4203 16.9172 19.3172C17.1797 19.1203 17.2828 18.7828 17.175 18.4734L15 12.15L20.6203 8.11875L20.7562 8.00156C20.8781 7.87031 21 7.69219 21 7.5C21 7.0875 20.6156 6.75 20.2031 6.75ZM17.9813 8.4L14.2406 11.0859C13.7719 11.4234 13.575 12.0328 13.7625 12.5766L15.1734 16.6875C15.2344 16.8609 15.0375 17.0063 14.8875 16.9031L11.2594 14.3156L11.2547 14.3109C10.7859 13.9828 10.5 13.4531 10.5 12.8812V3.06094C10.5 2.95781 10.6453 2.93437 10.6781 3.03281L12.0656 7.16719C12.2437 7.70156 12.7453 8.0625 13.3078 8.0625H17.8688C18.0516 8.0625 18.1266 8.29688 17.9813 8.4Z" fill="#E0CA05"/>
</svg>
