<svg width="18" height="17" viewBox="0 0 18 17" fill="none" xmlns="http://www.w3.org/2000/svg">
<path d="M8.89649 0.780908C9.04617 0.320253 9.69787 0.320253 9.84755 0.780908L11.5205 5.9296C11.5874 6.13561 11.7794 6.27509 11.996 6.27509H17.4096C17.894 6.27509 18.0954 6.8949 17.7035 7.1796L13.3238 10.3617C13.1486 10.489 13.0752 10.7147 13.1422 10.9207L14.8151 16.0694C14.9647 16.53 14.4375 16.9131 14.0457 16.6284L9.66591 13.4463C9.49067 13.319 9.25337 13.319 9.07813 13.4463L4.69839 16.6284C4.30654 16.9131 3.7793 16.53 3.92897 16.0694L5.60188 10.9207C5.66882 10.7147 5.59549 10.489 5.42025 10.3617L1.04051 7.1796C0.648653 6.8949 0.850041 6.27509 1.3344 6.27509H6.74805C6.96467 6.27509 7.15665 6.13561 7.22358 5.9296L8.89649 0.780908Z" fill="#D9D9D9"/>
</svg>
