<svg width="33" height="33" viewBox="0 0 33 33" fill="none" xmlns="http://www.w3.org/2000/svg">
<path fill-rule="evenodd" clip-rule="evenodd" d="M21.3568 12.6736C21.4531 12.7699 21.5287 12.8799 21.5809 13.0036C21.6332 13.1274 21.6593 13.2649 21.6593 13.4025C21.6593 13.54 21.6332 13.6776 21.5809 13.8013C21.5287 13.9251 21.4531 14.0351 21.3568 14.1313L15.1686 20.3196C15.0723 20.4158 14.9595 20.4982 14.833 20.5395C14.7079 20.5945 14.5745 20.6221 14.4384 20.6221C14.3022 20.6221 14.1688 20.5945 14.0437 20.5395C13.9172 20.4982 13.8044 20.4158 13.7081 20.3196L10.614 17.2255C10.5178 17.1292 10.4422 17.0192 10.3899 16.8954C10.3377 16.7717 10.3115 16.6341 10.3115 16.4966C10.3115 16.3591 10.3377 16.2215 10.3899 16.0977C10.4422 15.974 10.5178 15.864 10.614 15.7677C10.7103 15.6714 10.8231 15.5891 10.9496 15.5478C11.0747 15.4928 11.2081 15.4652 11.3442 15.4652C11.4804 15.4652 11.6138 15.4928 11.7389 15.5478C11.864 15.5891 11.9782 15.6714 12.0745 15.7677L14.4384 18.1329L19.8964 12.6736C19.9926 12.5773 20.1054 12.4949 20.2319 12.4537C20.3571 12.3987 20.4904 12.3711 20.6266 12.3711C20.7627 12.3711 20.8961 12.3987 21.0212 12.4537C21.1478 12.4949 21.2605 12.5773 21.3568 12.6736Z" fill="#B6B6B6"/>
<path d="M21.1885 5.18048L19.2895 3.22786L20.7636 1.79764L22.0467 3.10397L23.8825 3.09021C24.6773 3.07646 25.4667 3.22782 26.2024 3.53036C26.9381 3.81914 27.6064 4.27286 28.1688 4.82293C28.7313 5.38674 29.1741 6.06048 29.4739 6.78932C29.7737 7.5319 29.9236 8.31567 29.914 9.11326L29.8933 10.9561L31.2052 12.2349C31.7732 12.785 32.2256 13.459 32.5336 14.1879C32.8417 14.9167 33.0012 15.7005 33.0012 16.498C33.0012 17.2956 32.8417 18.0794 32.5336 18.8082C32.2256 19.5371 31.7732 20.2111 31.2052 20.7612L29.8919 22.04L29.914 23.8828C29.9236 24.6804 29.7737 25.4642 29.4739 26.193C29.1741 26.9356 28.7313 27.6093 28.1688 28.1594C27.6064 28.7232 26.9381 29.177 26.2024 29.4657C25.4667 29.7683 24.6773 29.9196 23.8825 29.9059L22.0467 29.8921L20.7636 31.1985C20.2094 31.776 19.5452 32.216 18.8136 32.5323C18.0807 32.8349 17.2941 33 16.5006 33C15.7058 33 14.9192 32.8349 14.1876 32.5323C13.4546 32.216 12.7918 31.776 12.2362 31.1985L10.9532 29.8921L9.11734 29.9059C8.32249 29.9196 7.53456 29.7683 6.79885 29.4657C6.06313 29.177 5.39344 28.7232 4.83237 28.1594C4.26993 27.6093 3.82574 26.9356 3.52595 26.193C3.22617 25.4642 3.07626 24.6804 3.08589 23.8828L3.10654 22.04L1.79466 20.7612C1.22672 20.2111 0.775629 19.5371 0.467592 18.8082C0.158181 18.0794 0 17.2956 0 16.498C0 15.7005 0.158181 14.9167 0.467592 14.1879C0.775629 13.459 1.22672 12.785 1.79466 12.2349L3.10931 10.9561L3.08589 9.11326C3.07626 8.31567 3.22617 7.5319 3.52595 6.78932C3.82574 6.06048 4.26993 5.38674 4.83237 4.82293C5.39344 4.27286 6.06313 3.81914 6.79885 3.53036C7.53456 3.22782 8.32249 3.07646 9.11734 3.09021L10.9532 3.10397L12.2362 1.79764C12.7918 1.22007 13.4546 0.766306 14.1876 0.46377C14.9192 0.161234 15.7058 -0.00390625 16.5006 -0.00390625C17.2941 -0.00390625 18.0807 0.161234 18.8136 0.46377C19.5452 0.766306 20.2094 1.22007 20.7636 1.79764L19.2895 3.22786C18.9264 2.85657 18.4918 2.56761 18.0133 2.36133C17.5347 2.15506 17.0204 2.05884 16.5006 2.05884C15.9808 2.05884 15.4665 2.15506 14.988 2.36133C14.508 2.56761 14.0748 2.85657 13.7118 3.22786L11.814 5.18048L9.09123 5.15295C8.57142 5.1392 8.0557 5.23541 7.57439 5.44168C7.09446 5.63421 6.65721 5.92315 6.29004 6.29445C5.92287 6.65199 5.63267 7.09195 5.43602 7.57325C5.24075 8.05456 5.14313 8.57726 5.14863 9.08607L5.18162 11.8089L3.23445 13.7064C2.86316 14.0777 2.56747 14.5039 2.36532 14.9852C2.16455 15.4665 2.06006 15.9755 2.06006 16.498C2.06006 17.0206 2.16455 17.5296 2.36532 18.0109C2.56747 18.4922 2.86316 18.9184 3.23445 19.2897L5.18162 21.1872L5.14863 23.91C5.14313 24.4326 5.2408 24.9415 5.43745 25.4228C5.6341 25.9041 5.92422 26.3441 6.29139 26.7016C6.65855 27.0729 7.09585 27.3619 7.57716 27.5682C8.05847 27.7607 8.57414 27.8569 9.09258 27.8431L11.8113 27.8156L13.7118 29.7682C14.0748 30.1395 14.508 30.4285 14.988 30.6348C15.4665 30.8273 15.9808 30.9373 16.5006 30.9373C17.0204 30.9373 17.5347 30.8273 18.0133 30.6348C18.4918 30.4285 18.9264 30.1395 19.2895 29.7682L21.1872 27.8156L23.91 27.8431C24.4298 27.8569 24.9441 27.7607 25.4254 27.5544C25.9067 27.3619 26.344 27.0729 26.7112 26.7016C27.0783 26.3441 27.3685 25.9041 27.5638 25.4228C27.7604 24.9415 27.8581 24.4188 27.8512 23.91L27.8182 21.1872L29.7654 19.2897C30.1381 18.9184 30.4324 18.4922 30.6346 18.0109C30.8367 17.5296 30.9398 17.0206 30.9398 16.498C30.9398 15.9755 30.8367 15.4665 30.6346 14.9852C30.4324 14.5039 30.1381 14.0777 29.7654 13.7064L27.8182 11.8089L27.8512 9.08607C27.8567 8.56351 27.759 8.05456 27.5638 7.57325C27.3671 7.09195 27.077 6.65198 26.7098 6.28068C26.3413 5.92314 25.9054 5.63419 25.4241 5.42792C24.9428 5.2354 24.427 5.1392 23.9072 5.15295L21.1885 5.18048Z" fill="#B6B6B6"/>
</svg>
