<svg width="17" height="18" viewBox="0 0 17 18" fill="none" xmlns="http://www.w3.org/2000/svg">
<path fill-rule="evenodd" clip-rule="evenodd" d="M5.5376 0.998099C5.87093 0.679349 6.32338 0.5 6.79449 0.5H10.35C10.8212 0.5 11.2736 0.679349 11.6069 0.998099C11.9403 1.31685 12.1278 1.7495 12.1278 2.2V3.9H14.7856C14.7909 3.9 14.7963 3.9 14.8016 3.9H15.6834C16.174 3.9 16.5723 4.2808 16.5723 4.75C16.5723 5.2192 16.174 5.6 15.6834 5.6H15.6221L14.91 15.1311C14.8629 15.7745 14.5616 16.3763 14.0683 16.8158C13.574 17.2561 12.9252 17.5 12.2505 17.5H4.89404C4.21938 17.5 3.5705 17.2561 3.07628 16.8158C2.58295 16.3763 2.28159 15.7745 2.23448 15.1311L1.52246 5.6H1.46115C0.970488 5.6 0.572266 5.2192 0.572266 4.75C0.572266 4.2808 0.970488 3.9 1.46115 3.9H2.34294C2.34827 3.9 2.35361 3.9 2.35894 3.9H5.01671V2.2C5.01671 1.7495 5.20426 1.31685 5.5376 0.998099ZM3.30469 5.6L4.00694 15.0103C4.02294 15.2245 4.12337 15.4251 4.28781 15.5722C4.45315 15.7184 4.66915 15.8 4.89404 15.8H12.2505C12.4754 15.8 12.6914 15.7184 12.8567 15.5722C13.0212 15.4251 13.1216 15.2245 13.1376 15.0103L13.8398 5.6H3.30469ZM10.35 3.9H6.79449V2.2H10.35V3.9ZM6.79449 7.3C7.28515 7.3 7.68338 7.6808 7.68338 8.15V13.25C7.68338 13.7192 7.28515 14.1 6.79449 14.1C6.30382 14.1 5.9056 13.7192 5.9056 13.25V8.15C5.9056 7.6808 6.30382 7.3 6.79449 7.3ZM10.35 7.3C10.8407 7.3 11.2389 7.6808 11.2389 8.15V13.25C11.2389 13.7192 10.8407 14.1 10.35 14.1C9.85938 14.1 9.46115 13.7192 9.46115 13.25V8.15C9.46115 7.6808 9.85938 7.3 10.35 7.3Z" fill="#9D9D9D"/>
</svg>
