<svg width="23" height="27" viewBox="0 0 23 27" fill="none" xmlns="http://www.w3.org/2000/svg">
<path d="M22.097 20.6547C21.5202 19.2479 20.6824 17.9751 19.6319 16.9033C18.584 15.818 17.343 14.9606 15.9768 14.3711C15.965 14.3577 15.9533 14.3577 15.9402 14.3577C17.8455 12.9375 19.0851 10.6331 19.0851 8.03398C19.0851 3.73332 15.6897 0.25 11.4995 0.25C7.30926 0.25 3.91506 3.73332 3.91506 8.03398C3.91506 10.6331 5.15345 12.9375 7.05868 14.3577C7.04694 14.3577 7.03391 14.3577 7.02217 14.3711C5.65196 14.9606 4.4227 15.818 3.367 16.9033C2.31651 17.9751 1.48002 19.2479 0.90193 20.6547C0.334275 22.0212 0.0275989 23.495 0.000194872 24.9955C-0.00111008 25.0223 0.00414096 25.0624 0.0158855 25.0892C0.0289351 25.116 0.04588 25.1429 0.0693692 25.1697C0.0915534 25.1965 0.118963 25.2099 0.148977 25.2233C0.178991 25.2367 0.211613 25.25 0.244236 25.25H2.07901C2.21342 25.25 2.32041 25.1429 2.32432 25.0089C2.38566 22.584 3.33307 20.3063 5.00994 18.5914C6.74422 16.8095 9.04615 15.8315 11.4995 15.8315C13.9528 15.8315 16.256 16.8095 17.989 18.5914C19.6658 20.3063 20.6133 22.584 20.6746 25.0089C20.6785 25.1429 20.7855 25.25 20.9199 25.25H22.7547C22.7873 25.25 22.8199 25.2367 22.8499 25.2233C22.88 25.2099 22.9074 25.1965 22.9296 25.1697C22.953 25.1429 22.9713 25.116 22.983 25.0892C22.9948 25.0624 23 25.0223 23 24.9955C22.9687 23.495 22.666 22.0346 22.097 20.6547ZM11.4995 13.4467C10.0953 13.4467 8.77471 12.8839 7.78034 11.8523C6.78596 10.8341 6.23919 9.48093 6.23919 8.03398C6.23919 6.60043 6.78596 5.24729 7.78034 4.21567C8.77471 3.19744 10.0953 2.63467 11.4995 2.63467C12.9036 2.63467 14.2242 3.19744 15.2186 4.21567C16.213 5.24729 16.7597 6.60043 16.7597 8.03398C16.7597 9.48093 16.213 10.8341 15.2186 11.8523C14.2242 12.8839 12.9036 13.4467 11.4995 13.4467Z" fill="#6D41A1"/>
<path fill-rule="evenodd" clip-rule="evenodd" d="M12.3381 18.4081C12.1244 17.5306 10.8756 17.5306 10.6619 18.4081C10.63 18.5399 10.5672 18.6627 10.479 18.7658C10.3909 18.8685 10.2798 18.9495 10.1542 19.0016C10.029 19.0536 9.89308 19.0752 9.75808 19.0649C9.62261 19.0541 9.49182 19.0119 9.37604 18.9416C8.60399 18.4709 7.72084 19.3541 8.19148 20.1261C8.49524 20.6244 8.22569 21.2746 7.65849 21.4124C6.7805 21.6257 6.7805 22.8749 7.65849 23.0877C7.79068 23.1196 7.91303 23.1824 8.01616 23.2705C8.11929 23.3587 8.19992 23.4702 8.25195 23.5954C8.30398 23.721 8.32555 23.857 8.31476 23.992C8.30445 24.1274 8.26179 24.2582 8.19148 24.374C7.72084 25.146 8.60399 26.0292 9.37604 25.5585C9.49182 25.4882 9.62261 25.4456 9.75808 25.4353C9.89308 25.4245 10.029 25.446 10.1547 25.4981C10.2798 25.5501 10.3914 25.6307 10.4795 25.7339C10.5676 25.837 10.6304 25.9593 10.6623 26.0915C10.8756 26.9695 12.1249 26.9695 12.3377 26.0915C12.3696 25.9598 12.4324 25.837 12.5205 25.7343C12.6091 25.6312 12.7202 25.5506 12.8458 25.4985C12.971 25.4465 13.1069 25.4249 13.2419 25.4353C13.3774 25.446 13.5082 25.4882 13.624 25.5585C14.396 26.0292 15.2792 25.146 14.8085 24.374C14.7382 24.2582 14.696 24.1274 14.6852 23.992C14.6749 23.857 14.6965 23.721 14.7485 23.5959C14.8005 23.4702 14.8812 23.3591 14.9843 23.2705C15.087 23.1824 15.2098 23.1196 15.3415 23.0877C16.2195 22.8744 16.2195 21.6252 15.3415 21.4124C15.2093 21.3805 15.087 21.3177 14.9838 21.2296C14.8807 21.1414 14.8001 21.0299 14.7481 20.9047C14.696 20.7791 14.6745 20.6432 14.6852 20.5082C14.6955 20.3727 14.7382 20.2419 14.8085 20.1261C15.2792 19.3541 14.396 18.4709 13.624 18.9416C13.5082 19.0119 13.3774 19.0545 13.2419 19.0649C13.1069 19.0756 12.971 19.0541 12.8453 19.002C12.7202 18.95 12.6086 18.8694 12.5205 18.7663C12.4324 18.6631 12.37 18.5403 12.3381 18.4081ZM11.5 23.9376C11.9477 23.9376 12.3766 23.7599 12.6935 23.4435C13.0099 23.1266 13.1875 22.6977 13.1875 22.2501C13.1875 21.8024 13.0099 21.3735 12.6935 21.0566C12.3766 20.7402 11.9477 20.5625 11.5 20.5625C11.0523 20.5625 10.6234 20.7402 10.3065 21.0566C9.99012 21.3735 9.81245 21.8024 9.81245 22.2501C9.81245 22.6977 9.99012 23.1266 10.3065 23.4435C10.6234 23.7599 11.0523 23.9376 11.5 23.9376Z" fill="#6D41A1"/>
</svg>
