<svg width="21" height="27" viewBox="0 0 21 27" fill="none" xmlns="http://www.w3.org/2000/svg">
<path d="M20.1755 19.366C19.6489 18.0653 18.8839 16.8885 17.9248 15.8975C16.968 14.8941 15.835 14.1013 14.5875 13.5562C14.5768 13.5438 14.566 13.5438 14.5541 13.5438C16.2937 12.2308 17.4256 10.1002 17.4256 7.69701C17.4256 3.72065 14.3253 0.5 10.4995 0.5C6.67367 0.5 3.57462 3.72065 3.57462 7.69701C3.57462 10.1002 4.70533 12.2308 6.44489 13.5438C6.43416 13.5438 6.42227 13.5438 6.41154 13.5562C5.16049 14.1013 4.03812 14.8941 3.07421 15.8975C2.11507 16.8885 1.35133 18.0653 0.823502 19.366C0.305208 20.6295 0.025199 21.9921 0.000177927 23.3795C-0.00101355 23.4043 0.00378087 23.4414 0.0145042 23.4662C0.026419 23.4909 0.0418905 23.5158 0.0633371 23.5406C0.0835922 23.5653 0.108619 23.5778 0.136023 23.5901C0.163427 23.6025 0.193212 23.6148 0.222999 23.6148H1.89823C2.02095 23.6148 2.11864 23.5158 2.12221 23.3919C2.17821 21.1498 3.04324 19.0439 4.57429 17.4583C6.15777 15.8108 8.25953 14.9066 10.4995 14.9066C12.7395 14.9066 14.8424 15.8108 16.4247 17.4583C17.9558 19.0439 18.8208 21.1498 18.8768 23.3919C18.8804 23.5158 18.9781 23.6148 19.1008 23.6148H20.776C20.8058 23.6148 20.8356 23.6025 20.863 23.5901C20.8904 23.5778 20.9154 23.5653 20.9357 23.5406C20.9571 23.5158 20.9738 23.4909 20.9845 23.4662C20.9952 23.4414 21 23.4043 21 23.3795C20.9714 21.9921 20.695 20.6419 20.1755 19.366ZM10.4995 12.7016C9.21748 12.7016 8.01169 12.1812 7.10378 11.2274C6.19588 10.2859 5.69665 9.03485 5.69665 7.69701C5.69665 6.37155 6.19588 5.12046 7.10378 4.16662C8.01169 3.22518 9.21748 2.70484 10.4995 2.70484C11.7815 2.70484 12.9873 3.22518 13.8952 4.16662C14.8031 5.12046 15.3024 6.37155 15.3024 7.69701C15.3024 9.03485 14.8031 10.2859 13.8952 11.2274C12.9873 12.1812 11.7815 12.7016 10.4995 12.7016Z" fill="#6D41A1"/>
<path d="M13.9826 17.1293C14.024 17.1867 14.0475 17.2577 14.0476 17.3356C14.0474 17.4133 14.0258 17.4889 13.9847 17.5531L11.744 21.0816L13.5792 21.6893C13.633 21.7071 13.6803 21.7423 13.7139 21.7923C13.7474 21.8424 13.7661 21.9068 13.769 21.971C13.7705 22.0396 13.7555 22.1076 13.7264 22.166C13.697 22.2244 13.6525 22.2778 13.6014 22.3095L7.37441 26.4488C7.31326 26.4918 7.24483 26.508 7.18015 26.4963C7.11441 26.4891 7.05715 26.4507 7.01439 26.3976C6.97341 26.3403 6.94988 26.2693 6.95013 26.1915C6.94859 26.1181 6.97192 26.0383 7.01303 25.9741L9.25333 22.4454L7.4185 21.8378C7.36438 21.8199 7.31743 21.7848 7.28387 21.7348C7.24994 21.6846 7.23159 21.6203 7.22869 21.5561C7.2272 21.4875 7.24186 21.4194 7.2713 21.3611C7.30037 21.3026 7.34491 21.2492 7.39629 21.2176L13.6233 17.0783C13.6845 17.0353 13.7525 17.019 13.8172 17.0307C13.883 17.0379 13.9402 17.0763 13.9826 17.1293ZM8.27008 21.3902L9.84022 21.9102C9.8833 21.9245 9.92174 21.9518 9.9533 21.9866C9.98486 22.0214 10.0066 22.0675 10.0196 22.1156C10.0312 22.1681 10.0329 22.2222 10.0243 22.2728C10.0146 22.328 9.99466 22.3797 9.96653 22.4238L8.26459 25.1044L12.7269 22.1366L11.1575 21.6169C11.1141 21.6025 11.076 21.5753 11.0444 21.5405C11.0129 21.5057 10.9907 21.4595 10.9777 21.4114C10.9665 21.3591 10.9648 21.305 10.9731 21.2542C10.9831 21.1992 11.0027 21.1473 11.0312 21.1033L12.7317 18.4271L8.27008 21.3902Z" fill="#6D41A1"/>
</svg>
